G04 (created by PCBNEW (2013-jul-07)-stable) date Mon 11 Jan 2016 09:02:01 PM CET*
%MOIN*%
G04 Gerber Fmt 3.4, Leading zero omitted, Abs format*
%FSLAX34Y34*%
G01*
G70*
G90*
G04 APERTURE LIST*
%ADD10C,0.00590551*%
%ADD11R,0.0197X0.0906*%
%ADD12R,0.0787X0.0984*%
%ADD13C,0.0354*%
%ADD14R,0.05X0.016*%
%ADD15R,0.06X0.08*%
%ADD16R,0.035X0.055*%
%ADD17C,0.055*%
%ADD18R,0.06X0.06*%
%ADD19C,0.06*%
%ADD20R,0.1X0.1*%
%ADD21C,0.1*%
%ADD22R,0.08X0.144*%
%ADD23R,0.08X0.04*%
%ADD24R,0.055X0.055*%
G04 APERTURE END LIST*
G54D10*
G54D11*
X45755Y-15218D03*
X45440Y-15218D03*
X45125Y-15218D03*
X44810Y-15218D03*
X44495Y-15218D03*
G54D12*
X46877Y-15179D03*
X46877Y-13014D03*
X43373Y-15179D03*
X43373Y-13014D03*
G54D13*
X45991Y-14195D03*
X44259Y-14195D03*
G54D14*
X51595Y-16340D03*
X51595Y-16090D03*
X51595Y-15830D03*
X51595Y-15570D03*
X51595Y-15320D03*
X51595Y-15060D03*
X51595Y-14800D03*
X51595Y-14550D03*
X51595Y-14290D03*
X51595Y-14040D03*
X51595Y-13780D03*
X51595Y-13520D03*
X51595Y-13270D03*
X51595Y-13010D03*
X48795Y-13010D03*
X48795Y-13270D03*
X48795Y-13510D03*
X48795Y-13780D03*
X48795Y-14040D03*
X48795Y-14290D03*
X48795Y-14550D03*
X48795Y-14800D03*
X48795Y-15060D03*
X48795Y-15320D03*
X48795Y-15570D03*
X48795Y-15830D03*
X48795Y-16090D03*
X48795Y-16340D03*
G54D15*
X32380Y-28280D03*
X31080Y-28280D03*
X32350Y-27065D03*
X31050Y-27065D03*
G54D16*
X27485Y-25970D03*
X26735Y-25970D03*
G54D17*
X35336Y-20286D03*
X34336Y-20286D03*
G54D18*
X37905Y-21285D03*
G54D19*
X38905Y-21285D03*
X37905Y-22285D03*
X38905Y-22285D03*
X37905Y-23285D03*
X38905Y-23285D03*
X37905Y-24285D03*
X38905Y-24285D03*
G54D18*
X23140Y-23980D03*
G54D19*
X24140Y-23980D03*
X25140Y-23980D03*
G54D18*
X47420Y-11795D03*
G54D19*
X48420Y-11795D03*
X49420Y-11795D03*
X50420Y-11795D03*
X51420Y-11795D03*
X52420Y-11795D03*
G54D20*
X20750Y-25590D03*
G54D21*
X20750Y-27590D03*
X20750Y-29590D03*
G54D20*
X29080Y-28280D03*
G54D21*
X27080Y-28280D03*
G54D22*
X36780Y-26375D03*
G54D23*
X34180Y-26375D03*
X34180Y-27275D03*
X34180Y-25475D03*
G54D16*
X31611Y-25739D03*
X32361Y-25739D03*
X30688Y-25753D03*
X29938Y-25753D03*
X33363Y-20418D03*
X32613Y-20418D03*
G54D24*
X23167Y-25193D03*
G54D17*
X24167Y-25193D03*
X25167Y-25193D03*
X23251Y-27254D03*
X25251Y-27254D03*
X23251Y-30254D03*
X25251Y-30254D03*
X43080Y-20930D03*
X43080Y-22930D03*
X40080Y-20930D03*
X40080Y-22930D03*
X39592Y-18076D03*
X39592Y-20076D03*
X36592Y-18076D03*
X36592Y-20076D03*
G54D24*
X35900Y-21395D03*
G54D17*
X34900Y-21395D03*
X33900Y-21395D03*
X32900Y-21395D03*
X31900Y-21395D03*
X30900Y-21395D03*
X29900Y-21395D03*
X28900Y-21395D03*
X27900Y-21395D03*
X26900Y-21395D03*
X26900Y-24395D03*
X27900Y-24395D03*
X28900Y-24395D03*
X29900Y-24395D03*
X30900Y-24395D03*
X31900Y-24395D03*
X32900Y-24395D03*
X33900Y-24395D03*
X34900Y-24395D03*
X35900Y-24395D03*
M02*
