G04 (created by PCBNEW (2013-jul-07)-stable) date Mon 11 Jan 2016 09:02:01 PM CET*
%MOIN*%
G04 Gerber Fmt 3.4, Leading zero omitted, Abs format*
%FSLAX34Y34*%
G01*
G70*
G90*
G04 APERTURE LIST*
%ADD10C,0.00590551*%
%ADD11C,0.0354*%
%ADD12C,0.055*%
%ADD13R,0.06X0.06*%
%ADD14C,0.06*%
%ADD15R,0.1X0.1*%
%ADD16C,0.1*%
%ADD17R,0.035X0.055*%
%ADD18R,0.055X0.055*%
%ADD19R,0.055X0.035*%
%ADD20R,0.019685X0.0393701*%
G04 APERTURE END LIST*
G54D10*
G54D11*
X45991Y-14195D03*
X44259Y-14195D03*
G54D12*
X35336Y-20286D03*
X34336Y-20286D03*
G54D13*
X37905Y-21285D03*
G54D14*
X38905Y-21285D03*
X37905Y-22285D03*
X38905Y-22285D03*
X37905Y-23285D03*
X38905Y-23285D03*
X37905Y-24285D03*
X38905Y-24285D03*
G54D13*
X23140Y-23980D03*
G54D14*
X24140Y-23980D03*
X25140Y-23980D03*
G54D13*
X47420Y-11795D03*
G54D14*
X48420Y-11795D03*
X49420Y-11795D03*
X50420Y-11795D03*
X51420Y-11795D03*
X52420Y-11795D03*
G54D15*
X20750Y-25590D03*
G54D16*
X20750Y-27590D03*
X20750Y-29590D03*
G54D15*
X29080Y-28280D03*
G54D16*
X27080Y-28280D03*
G54D17*
X23867Y-26369D03*
X24617Y-26369D03*
G54D18*
X23167Y-25193D03*
G54D12*
X24167Y-25193D03*
X25167Y-25193D03*
X23251Y-27254D03*
X25251Y-27254D03*
X23251Y-30254D03*
X25251Y-30254D03*
X43080Y-20930D03*
X43080Y-22930D03*
X40080Y-20930D03*
X40080Y-22930D03*
X39592Y-18076D03*
X39592Y-20076D03*
X36592Y-18076D03*
X36592Y-20076D03*
G54D19*
X49055Y-17030D03*
X49055Y-17780D03*
X48122Y-17035D03*
X48122Y-17785D03*
G54D18*
X35900Y-21395D03*
G54D12*
X34900Y-21395D03*
X33900Y-21395D03*
X32900Y-21395D03*
X31900Y-21395D03*
X30900Y-21395D03*
X29900Y-21395D03*
X28900Y-21395D03*
X27900Y-21395D03*
X26900Y-21395D03*
X26900Y-24395D03*
X27900Y-24395D03*
X28900Y-24395D03*
X29900Y-24395D03*
X30900Y-24395D03*
X31900Y-24395D03*
X32900Y-24395D03*
X33900Y-24395D03*
X34900Y-24395D03*
X35900Y-24395D03*
G54D20*
X47424Y-19809D03*
X46636Y-19809D03*
X45849Y-19809D03*
X45061Y-19809D03*
X44274Y-19809D03*
X43487Y-19809D03*
X42699Y-19809D03*
X47424Y-14923D03*
X46636Y-14923D03*
X45849Y-14923D03*
X45061Y-14923D03*
X44274Y-14923D03*
X43487Y-14923D03*
X42699Y-14923D03*
M02*
