M48
;DRILL file {Pcbnew (2013-jul-07)-stable} date Mon 11 Jan 2016 09:01:58 PM CET
;FORMAT={-:-/ absolute / inch / decimal}
FMAT,2
INCH,TZ
T1C0.025
T2C0.032
T3C0.040
T4C0.060
%
G90
G05
M72
T1
X3.0119Y-2.7554
X3.19Y-2.038
X3.515Y-2.6405
X3.533Y-2.7275
X4.078Y-2.185
X4.4515Y-1.6055
X4.5699Y-1.8928
X4.6145Y-1.7225
X4.9707Y-1.3509
X5.0648Y-1.4804
T2
X2.3167Y-2.5193
X2.3251Y-2.7254
X2.3251Y-3.0254
X2.4167Y-2.5193
X2.5167Y-2.5193
X2.5251Y-2.7254
X2.5251Y-3.0254
X2.69Y-2.1395
X2.69Y-2.4395
X2.79Y-2.1395
X2.79Y-2.4395
X2.89Y-2.1395
X2.89Y-2.4395
X2.99Y-2.1395
X2.99Y-2.4395
X3.09Y-2.1395
X3.09Y-2.4395
X3.19Y-2.1395
X3.19Y-2.4395
X3.29Y-2.1395
X3.29Y-2.4395
X3.39Y-2.1395
X3.39Y-2.4395
X3.4336Y-2.0286
X3.49Y-2.1395
X3.49Y-2.4395
X3.5336Y-2.0286
X3.59Y-2.1395
X3.59Y-2.4395
X3.6592Y-1.8076
X3.6592Y-2.0076
X3.9592Y-1.8076
X3.9592Y-2.0076
X4.008Y-2.093
X4.008Y-2.293
X4.308Y-2.093
X4.308Y-2.293
T3
X2.314Y-2.398
X2.414Y-2.398
X2.514Y-2.398
X3.7905Y-2.1285
X3.7905Y-2.2285
X3.7905Y-2.3285
X3.7905Y-2.4285
X3.8905Y-2.1285
X3.8905Y-2.2285
X3.8905Y-2.3285
X3.8905Y-2.4285
X4.742Y-1.1795
X4.842Y-1.1795
X4.942Y-1.1795
X5.042Y-1.1795
X5.142Y-1.1795
X5.242Y-1.1795
T4
X2.075Y-2.559
X2.075Y-2.759
X2.075Y-2.959
X2.708Y-2.828
X2.908Y-2.828
T0
M30
