G04 (created by PCBNEW (2013-jul-07)-stable) date Wed 30 Sep 2015 08:29:52 PM CEST*
%MOIN*%
G04 Gerber Fmt 3.4, Leading zero omitted, Abs format*
%FSLAX34Y34*%
G01*
G70*
G90*
G04 APERTURE LIST*
%ADD10C,0.00590551*%
%ADD11C,0.055*%
%ADD12R,0.06X0.06*%
%ADD13C,0.06*%
%ADD14R,0.1X0.1*%
%ADD15C,0.1*%
%ADD16R,0.035X0.055*%
%ADD17R,0.055X0.055*%
%ADD18R,0.055X0.035*%
%ADD19R,0.019685X0.0393701*%
%ADD20C,0.035*%
%ADD21C,0.01*%
G04 APERTURE END LIST*
G54D10*
G54D11*
X35336Y-20286D03*
X34336Y-20286D03*
G54D12*
X37905Y-21285D03*
G54D13*
X38905Y-21285D03*
X37905Y-22285D03*
X38905Y-22285D03*
X37905Y-23285D03*
X38905Y-23285D03*
X37905Y-24285D03*
X38905Y-24285D03*
G54D12*
X23140Y-23980D03*
G54D13*
X24140Y-23980D03*
X25140Y-23980D03*
G54D12*
X47420Y-11795D03*
G54D13*
X48420Y-11795D03*
X49420Y-11795D03*
X50420Y-11795D03*
X51420Y-11795D03*
X52420Y-11795D03*
G54D14*
X20750Y-25590D03*
G54D15*
X20750Y-27590D03*
X20750Y-29590D03*
G54D14*
X29080Y-28280D03*
G54D15*
X27080Y-28280D03*
G54D16*
X23867Y-26369D03*
X24617Y-26369D03*
G54D17*
X23167Y-25193D03*
G54D11*
X24167Y-25193D03*
X25167Y-25193D03*
X23251Y-27254D03*
X25251Y-27254D03*
X23251Y-30254D03*
X25251Y-30254D03*
X43080Y-20930D03*
X43080Y-22930D03*
X40080Y-20930D03*
X40080Y-22930D03*
X39592Y-18076D03*
X39592Y-20076D03*
X36592Y-18076D03*
X36592Y-20076D03*
G54D18*
X49055Y-17030D03*
X49055Y-17780D03*
X48122Y-17035D03*
X48122Y-17785D03*
G54D17*
X35900Y-21395D03*
G54D11*
X34900Y-21395D03*
X33900Y-21395D03*
X32900Y-21395D03*
X31900Y-21395D03*
X30900Y-21395D03*
X29900Y-21395D03*
X28900Y-21395D03*
X27900Y-21395D03*
X26900Y-21395D03*
X26900Y-24395D03*
X27900Y-24395D03*
X28900Y-24395D03*
X29900Y-24395D03*
X30900Y-24395D03*
X31900Y-24395D03*
X32900Y-24395D03*
X33900Y-24395D03*
X34900Y-24395D03*
X35900Y-24395D03*
G54D19*
X47424Y-19809D03*
X46636Y-19809D03*
X45849Y-19809D03*
X45061Y-19809D03*
X44274Y-19809D03*
X43487Y-19809D03*
X42699Y-19809D03*
X47424Y-14923D03*
X46636Y-14923D03*
X45849Y-14923D03*
X45061Y-14923D03*
X44274Y-14923D03*
X43487Y-14923D03*
X42699Y-14923D03*
G54D20*
X45699Y-18928D03*
X35150Y-26405D03*
X46145Y-17225D03*
X35330Y-27275D03*
X40780Y-21850D03*
X49707Y-13509D03*
X50648Y-14804D03*
X31900Y-20380D03*
X44515Y-16055D03*
G54D21*
X45671Y-18928D02*
X45699Y-18928D01*
X46756Y-16820D02*
X43340Y-16820D01*
X42699Y-16179D02*
X42699Y-14825D01*
X43340Y-16820D02*
X42699Y-16179D01*
X35900Y-21395D02*
X35900Y-23510D01*
X35150Y-26300D02*
X35150Y-26405D01*
X35390Y-26060D02*
X35150Y-26300D01*
X35390Y-24020D02*
X35390Y-26060D01*
X35900Y-23510D02*
X35390Y-24020D01*
X48122Y-17035D02*
X49050Y-17035D01*
X49050Y-17035D02*
X49055Y-17030D01*
X47005Y-17035D02*
X48122Y-17035D01*
X46550Y-16820D02*
X46756Y-16820D01*
X46756Y-16820D02*
X46790Y-16820D01*
X46145Y-17225D02*
X46550Y-16820D01*
X46790Y-16820D02*
X47005Y-17035D01*
X37040Y-27275D02*
X35330Y-27275D01*
X37250Y-27065D02*
X37040Y-27275D01*
X37250Y-22036D02*
X37250Y-27065D01*
X37474Y-21812D02*
X37250Y-22036D01*
X40742Y-21812D02*
X37474Y-21812D01*
X40780Y-21850D02*
X40742Y-21812D01*
X49707Y-13509D02*
X49707Y-13505D01*
X40080Y-22930D02*
X39494Y-22930D01*
X38404Y-25183D02*
X38412Y-25191D01*
X38404Y-22938D02*
X38404Y-25183D01*
X38560Y-22782D02*
X38404Y-22938D01*
X39346Y-22782D02*
X38560Y-22782D01*
X39494Y-22930D02*
X39346Y-22782D01*
X44524Y-16046D02*
X44524Y-16033D01*
X44515Y-16055D02*
X44524Y-16046D01*
X23867Y-26369D02*
X22137Y-26369D01*
X20916Y-27590D02*
X20750Y-27590D01*
X22137Y-26369D02*
X20916Y-27590D01*
X23251Y-30254D02*
X23251Y-27254D01*
X23251Y-27254D02*
X23843Y-27254D01*
X24977Y-25193D02*
X25167Y-25193D01*
X24220Y-25950D02*
X24977Y-25193D01*
X24220Y-26877D02*
X24220Y-25950D01*
X23843Y-27254D02*
X24220Y-26877D01*
X40080Y-20930D02*
X43080Y-20930D01*
X43080Y-20930D02*
X43880Y-20130D01*
X43880Y-20130D02*
X43880Y-19070D01*
X43880Y-19070D02*
X43749Y-18939D01*
X43487Y-19809D02*
X43487Y-19200D01*
X48460Y-18375D02*
X49055Y-17780D01*
X44313Y-18375D02*
X48460Y-18375D01*
X43487Y-19200D02*
X43749Y-18939D01*
X43749Y-18939D02*
X44313Y-18375D01*
X45061Y-19809D02*
X45061Y-20678D01*
X43455Y-22285D02*
X38905Y-22285D01*
X45061Y-20678D02*
X43455Y-22285D01*
X38905Y-23285D02*
X39235Y-23285D01*
X45849Y-20303D02*
X45849Y-19809D01*
X43667Y-22485D02*
X45849Y-20303D01*
X42624Y-22485D02*
X43667Y-22485D01*
X41420Y-23690D02*
X42624Y-22485D01*
X39640Y-23690D02*
X41420Y-23690D01*
X39235Y-23285D02*
X39640Y-23690D01*
X24617Y-26369D02*
X25597Y-26369D01*
X25597Y-26369D02*
X25858Y-26630D01*
X50420Y-11795D02*
X50420Y-11953D01*
X31402Y-23893D02*
X30900Y-24395D01*
X31402Y-21066D02*
X31402Y-23893D01*
X31537Y-20930D02*
X31402Y-21066D01*
X34480Y-20930D02*
X31537Y-20930D01*
X34844Y-20567D02*
X34480Y-20930D01*
X34844Y-19493D02*
X34844Y-20567D01*
X35241Y-19096D02*
X34844Y-19493D01*
X36970Y-19096D02*
X35241Y-19096D01*
X41851Y-14215D02*
X36970Y-19096D01*
X42941Y-14215D02*
X41851Y-14215D01*
X43106Y-14379D02*
X42941Y-14215D01*
X43106Y-15191D02*
X43106Y-14379D01*
X43322Y-15407D02*
X43106Y-15191D01*
X44515Y-15407D02*
X43322Y-15407D01*
X44672Y-15250D02*
X44515Y-15407D01*
X44672Y-12724D02*
X44672Y-15250D01*
X44985Y-12411D02*
X44672Y-12724D01*
X49962Y-12411D02*
X44985Y-12411D01*
X50420Y-11953D02*
X49962Y-12411D01*
X31130Y-24625D02*
X30900Y-24395D01*
X31130Y-26400D02*
X31130Y-24625D01*
X30900Y-26630D02*
X31130Y-26400D01*
X25858Y-26630D02*
X30900Y-26630D01*
X29900Y-24395D02*
X29900Y-22260D01*
X48895Y-11270D02*
X49420Y-11795D01*
X47000Y-11270D02*
X48895Y-11270D01*
X46430Y-11840D02*
X47000Y-11270D01*
X44820Y-11840D02*
X46430Y-11840D01*
X44240Y-12420D02*
X44820Y-11840D01*
X44240Y-13550D02*
X44240Y-12420D01*
X43840Y-13950D02*
X44240Y-13550D01*
X41830Y-13950D02*
X43840Y-13950D01*
X36950Y-18830D02*
X41830Y-13950D01*
X35070Y-18830D02*
X36950Y-18830D01*
X33170Y-20730D02*
X35070Y-18830D01*
X30890Y-20730D02*
X33170Y-20730D01*
X30380Y-21240D02*
X30890Y-20730D01*
X30380Y-21780D02*
X30380Y-21240D01*
X29900Y-22260D02*
X30380Y-21780D01*
X48122Y-17785D02*
X39883Y-17785D01*
X39883Y-17785D02*
X39592Y-18076D01*
X47424Y-14825D02*
X47424Y-15810D01*
X48493Y-17414D02*
X48122Y-17785D01*
X49776Y-17414D02*
X48493Y-17414D01*
X49807Y-17383D02*
X49776Y-17414D01*
X49807Y-16753D02*
X49807Y-17383D01*
X49586Y-16532D02*
X49807Y-16753D01*
X48146Y-16532D02*
X49586Y-16532D01*
X47424Y-15810D02*
X48146Y-16532D01*
X46636Y-14825D02*
X47424Y-14825D01*
X24140Y-23980D02*
X24140Y-23938D01*
X24140Y-23938D02*
X24355Y-23723D01*
G54D10*
G36*
X38674Y-22784D02*
X38593Y-22818D01*
X38439Y-22973D01*
X38405Y-23054D01*
X38371Y-22973D01*
X38216Y-22819D01*
X38135Y-22785D01*
X38216Y-22751D01*
X38370Y-22596D01*
X38404Y-22515D01*
X38438Y-22596D01*
X38593Y-22750D01*
X38674Y-22784D01*
X38674Y-22784D01*
G37*
G54D21*
X38674Y-22784D02*
X38593Y-22818D01*
X38439Y-22973D01*
X38405Y-23054D01*
X38371Y-22973D01*
X38216Y-22819D01*
X38135Y-22785D01*
X38216Y-22751D01*
X38370Y-22596D01*
X38404Y-22515D01*
X38438Y-22596D01*
X38593Y-22750D01*
X38674Y-22784D01*
G54D10*
G36*
X42100Y-22585D02*
X41295Y-23390D01*
X40609Y-23390D01*
X40352Y-23390D01*
X40377Y-23297D01*
X40080Y-23000D01*
X40009Y-23071D01*
X39782Y-23297D01*
X39807Y-23390D01*
X39764Y-23390D01*
X39447Y-23072D01*
X39399Y-23040D01*
X39399Y-23040D01*
X39371Y-22973D01*
X39216Y-22819D01*
X39135Y-22785D01*
X39216Y-22751D01*
X39370Y-22596D01*
X39375Y-22585D01*
X39669Y-22585D01*
X39666Y-22587D01*
X39712Y-22632D01*
X39619Y-22657D01*
X39550Y-22854D01*
X39561Y-23062D01*
X39619Y-23202D01*
X39712Y-23227D01*
X40009Y-22930D01*
X40003Y-22924D01*
X40074Y-22853D01*
X40080Y-22859D01*
X40085Y-22853D01*
X40156Y-22924D01*
X40150Y-22930D01*
X40447Y-23227D01*
X40540Y-23202D01*
X40609Y-23005D01*
X40598Y-22797D01*
X40540Y-22657D01*
X40447Y-22632D01*
X40493Y-22587D01*
X40490Y-22585D01*
X42100Y-22585D01*
X42100Y-22585D01*
G37*
G54D21*
X42100Y-22585D02*
X41295Y-23390D01*
X40609Y-23390D01*
X40352Y-23390D01*
X40377Y-23297D01*
X40080Y-23000D01*
X40009Y-23071D01*
X39782Y-23297D01*
X39807Y-23390D01*
X39764Y-23390D01*
X39447Y-23072D01*
X39399Y-23040D01*
X39399Y-23040D01*
X39371Y-22973D01*
X39216Y-22819D01*
X39135Y-22785D01*
X39216Y-22751D01*
X39370Y-22596D01*
X39375Y-22585D01*
X39669Y-22585D01*
X39666Y-22587D01*
X39712Y-22632D01*
X39619Y-22657D01*
X39550Y-22854D01*
X39561Y-23062D01*
X39619Y-23202D01*
X39712Y-23227D01*
X40009Y-22930D01*
X40003Y-22924D01*
X40074Y-22853D01*
X40080Y-22859D01*
X40085Y-22853D01*
X40156Y-22924D01*
X40150Y-22930D01*
X40447Y-23227D01*
X40540Y-23202D01*
X40609Y-23005D01*
X40598Y-22797D01*
X40540Y-22657D01*
X40447Y-22632D01*
X40493Y-22587D01*
X40490Y-22585D01*
X42100Y-22585D01*
G54D10*
G36*
X46645Y-11200D02*
X46305Y-11540D01*
X44820Y-11540D01*
X44705Y-11562D01*
X44607Y-11627D01*
X44027Y-12207D01*
X43962Y-12305D01*
X43940Y-12420D01*
X43940Y-13425D01*
X43715Y-13650D01*
X41830Y-13650D01*
X41715Y-13672D01*
X41617Y-13737D01*
X37075Y-18279D01*
X37116Y-18180D01*
X37117Y-17972D01*
X37037Y-17779D01*
X36889Y-17631D01*
X36696Y-17551D01*
X36488Y-17550D01*
X36295Y-17630D01*
X36147Y-17778D01*
X36067Y-17971D01*
X36066Y-18179D01*
X36146Y-18373D01*
X36294Y-18520D01*
X36316Y-18530D01*
X35070Y-18530D01*
X34955Y-18552D01*
X34857Y-18617D01*
X33045Y-20430D01*
X30890Y-20430D01*
X30775Y-20452D01*
X30677Y-20517D01*
X30221Y-20974D01*
X30197Y-20950D01*
X30004Y-20870D01*
X29796Y-20869D01*
X29603Y-20949D01*
X29455Y-21097D01*
X29399Y-21230D01*
X29345Y-21098D01*
X29197Y-20950D01*
X29004Y-20870D01*
X28796Y-20869D01*
X28603Y-20949D01*
X28455Y-21097D01*
X28399Y-21230D01*
X28345Y-21098D01*
X28197Y-20950D01*
X28004Y-20870D01*
X27796Y-20869D01*
X27603Y-20949D01*
X27455Y-21097D01*
X27399Y-21230D01*
X27345Y-21098D01*
X27197Y-20950D01*
X27004Y-20870D01*
X26796Y-20869D01*
X26603Y-20949D01*
X26455Y-21097D01*
X26375Y-21290D01*
X26374Y-21498D01*
X26454Y-21692D01*
X26602Y-21839D01*
X26795Y-21919D01*
X27003Y-21920D01*
X27197Y-21840D01*
X27344Y-21692D01*
X27400Y-21559D01*
X27454Y-21692D01*
X27602Y-21839D01*
X27795Y-21919D01*
X28003Y-21920D01*
X28197Y-21840D01*
X28344Y-21692D01*
X28400Y-21559D01*
X28454Y-21692D01*
X28602Y-21839D01*
X28795Y-21919D01*
X29003Y-21920D01*
X29197Y-21840D01*
X29344Y-21692D01*
X29400Y-21559D01*
X29454Y-21692D01*
X29602Y-21839D01*
X29795Y-21919D01*
X29815Y-21919D01*
X29687Y-22047D01*
X29622Y-22145D01*
X29600Y-22260D01*
X29600Y-23952D01*
X29455Y-24097D01*
X29399Y-24230D01*
X29345Y-24098D01*
X29197Y-23950D01*
X29004Y-23870D01*
X28796Y-23869D01*
X28603Y-23949D01*
X28455Y-24097D01*
X28399Y-24230D01*
X28345Y-24098D01*
X28197Y-23950D01*
X28004Y-23870D01*
X27796Y-23869D01*
X27603Y-23949D01*
X27455Y-24097D01*
X27399Y-24230D01*
X27345Y-24098D01*
X27197Y-23950D01*
X27004Y-23870D01*
X26796Y-23869D01*
X26603Y-23949D01*
X26455Y-24097D01*
X26375Y-24290D01*
X26374Y-24498D01*
X26454Y-24692D01*
X26602Y-24839D01*
X26795Y-24919D01*
X27003Y-24920D01*
X27197Y-24840D01*
X27344Y-24692D01*
X27400Y-24559D01*
X27454Y-24692D01*
X27602Y-24839D01*
X27795Y-24919D01*
X28003Y-24920D01*
X28197Y-24840D01*
X28344Y-24692D01*
X28400Y-24559D01*
X28454Y-24692D01*
X28602Y-24839D01*
X28795Y-24919D01*
X29003Y-24920D01*
X29197Y-24840D01*
X29344Y-24692D01*
X29400Y-24559D01*
X29454Y-24692D01*
X29602Y-24839D01*
X29795Y-24919D01*
X30003Y-24920D01*
X30197Y-24840D01*
X30344Y-24692D01*
X30400Y-24559D01*
X30454Y-24692D01*
X30602Y-24839D01*
X30795Y-24919D01*
X30830Y-24919D01*
X30830Y-26275D01*
X30775Y-26330D01*
X25982Y-26330D01*
X25809Y-26156D01*
X25711Y-26091D01*
X25694Y-26088D01*
X25694Y-24061D01*
X25683Y-23843D01*
X25621Y-23692D01*
X25525Y-23664D01*
X25455Y-23735D01*
X25455Y-23594D01*
X25427Y-23498D01*
X25221Y-23425D01*
X25003Y-23436D01*
X24852Y-23498D01*
X24824Y-23594D01*
X25140Y-23909D01*
X25455Y-23594D01*
X25455Y-23735D01*
X25210Y-23980D01*
X25525Y-24295D01*
X25621Y-24267D01*
X25694Y-24061D01*
X25694Y-26088D01*
X25597Y-26069D01*
X25042Y-26069D01*
X25042Y-26044D01*
X25004Y-25952D01*
X24933Y-25882D01*
X24841Y-25844D01*
X24750Y-25843D01*
X24930Y-25663D01*
X25062Y-25717D01*
X25270Y-25718D01*
X25464Y-25638D01*
X25611Y-25490D01*
X25691Y-25297D01*
X25692Y-25089D01*
X25612Y-24896D01*
X25464Y-24748D01*
X25455Y-24744D01*
X25455Y-24365D01*
X25140Y-24050D01*
X25069Y-24121D01*
X25069Y-23980D01*
X24754Y-23664D01*
X24658Y-23692D01*
X24652Y-23709D01*
X24632Y-23608D01*
X24567Y-23510D01*
X24469Y-23445D01*
X24355Y-23423D01*
X24272Y-23439D01*
X24249Y-23430D01*
X24031Y-23429D01*
X23828Y-23513D01*
X23690Y-23652D01*
X23690Y-23630D01*
X23652Y-23538D01*
X23581Y-23468D01*
X23489Y-23430D01*
X23390Y-23429D01*
X22790Y-23429D01*
X22698Y-23467D01*
X22628Y-23538D01*
X22590Y-23630D01*
X22589Y-23729D01*
X22589Y-24329D01*
X22627Y-24421D01*
X22698Y-24491D01*
X22790Y-24529D01*
X22889Y-24530D01*
X23489Y-24530D01*
X23581Y-24492D01*
X23651Y-24421D01*
X23689Y-24329D01*
X23689Y-24307D01*
X23828Y-24445D01*
X24030Y-24529D01*
X24248Y-24530D01*
X24451Y-24446D01*
X24605Y-24291D01*
X24637Y-24216D01*
X24658Y-24267D01*
X24754Y-24295D01*
X25069Y-23980D01*
X25069Y-24121D01*
X24824Y-24365D01*
X24852Y-24461D01*
X25058Y-24534D01*
X25276Y-24523D01*
X25427Y-24461D01*
X25455Y-24365D01*
X25455Y-24744D01*
X25271Y-24668D01*
X25063Y-24667D01*
X24870Y-24747D01*
X24722Y-24895D01*
X24666Y-25028D01*
X24612Y-24896D01*
X24464Y-24748D01*
X24271Y-24668D01*
X24063Y-24667D01*
X23870Y-24747D01*
X23722Y-24895D01*
X23692Y-24967D01*
X23692Y-24967D01*
X23691Y-24868D01*
X23653Y-24776D01*
X23583Y-24705D01*
X23491Y-24667D01*
X23279Y-24668D01*
X23217Y-24730D01*
X23217Y-25143D01*
X23224Y-25143D01*
X23224Y-25243D01*
X23217Y-25243D01*
X23217Y-25655D01*
X23279Y-25718D01*
X23491Y-25718D01*
X23583Y-25680D01*
X23653Y-25609D01*
X23691Y-25517D01*
X23692Y-25418D01*
X23692Y-25418D01*
X23721Y-25490D01*
X23869Y-25637D01*
X24037Y-25707D01*
X24007Y-25737D01*
X23942Y-25835D01*
X23941Y-25843D01*
X23642Y-25843D01*
X23550Y-25881D01*
X23480Y-25952D01*
X23442Y-26044D01*
X23442Y-26069D01*
X23117Y-26069D01*
X23117Y-25655D01*
X23117Y-25243D01*
X23117Y-25143D01*
X23117Y-24730D01*
X23054Y-24668D01*
X22842Y-24667D01*
X22750Y-24705D01*
X22680Y-24776D01*
X22642Y-24868D01*
X22641Y-24967D01*
X22642Y-25080D01*
X22704Y-25143D01*
X23117Y-25143D01*
X23117Y-25243D01*
X22704Y-25243D01*
X22642Y-25305D01*
X22641Y-25418D01*
X22642Y-25517D01*
X22680Y-25609D01*
X22750Y-25680D01*
X22842Y-25718D01*
X23054Y-25718D01*
X23117Y-25655D01*
X23117Y-26069D01*
X22137Y-26069D01*
X22022Y-26091D01*
X21924Y-26156D01*
X21500Y-26581D01*
X21500Y-26040D01*
X21500Y-25040D01*
X21462Y-24948D01*
X21391Y-24878D01*
X21299Y-24840D01*
X21200Y-24839D01*
X20200Y-24839D01*
X20108Y-24877D01*
X20038Y-24948D01*
X20000Y-25040D01*
X19999Y-25139D01*
X19999Y-26139D01*
X20037Y-26231D01*
X20108Y-26301D01*
X20200Y-26339D01*
X20299Y-26340D01*
X21299Y-26340D01*
X21391Y-26302D01*
X21461Y-26231D01*
X21499Y-26139D01*
X21500Y-26040D01*
X21500Y-26581D01*
X21141Y-26940D01*
X20899Y-26840D01*
X20601Y-26839D01*
X20325Y-26953D01*
X20114Y-27164D01*
X20000Y-27440D01*
X19999Y-27738D01*
X20113Y-28014D01*
X20324Y-28225D01*
X20600Y-28339D01*
X20898Y-28340D01*
X21174Y-28226D01*
X21385Y-28015D01*
X21499Y-27739D01*
X21500Y-27441D01*
X21496Y-27433D01*
X22261Y-26669D01*
X23441Y-26669D01*
X23441Y-26693D01*
X23477Y-26779D01*
X23355Y-26729D01*
X23147Y-26728D01*
X22954Y-26808D01*
X22806Y-26956D01*
X22726Y-27149D01*
X22725Y-27357D01*
X22805Y-27551D01*
X22951Y-27696D01*
X22951Y-29811D01*
X22806Y-29956D01*
X22726Y-30149D01*
X22725Y-30357D01*
X22805Y-30551D01*
X22877Y-30623D01*
X21503Y-30630D01*
X21503Y-29719D01*
X21495Y-29421D01*
X21396Y-29181D01*
X21280Y-29130D01*
X21209Y-29200D01*
X21209Y-29059D01*
X21158Y-28943D01*
X20879Y-28836D01*
X20581Y-28844D01*
X20341Y-28943D01*
X20290Y-29059D01*
X20750Y-29519D01*
X21209Y-29059D01*
X21209Y-29200D01*
X20820Y-29590D01*
X21280Y-30049D01*
X21396Y-29998D01*
X21503Y-29719D01*
X21503Y-30630D01*
X21209Y-30632D01*
X21209Y-30120D01*
X20750Y-29660D01*
X20679Y-29731D01*
X20679Y-29590D01*
X20219Y-29130D01*
X20103Y-29181D01*
X19996Y-29460D01*
X20004Y-29758D01*
X20103Y-29998D01*
X20219Y-30049D01*
X20679Y-29590D01*
X20679Y-29731D01*
X20290Y-30120D01*
X20341Y-30236D01*
X20620Y-30343D01*
X20918Y-30335D01*
X21158Y-30236D01*
X21209Y-30120D01*
X21209Y-30632D01*
X19111Y-30644D01*
X19100Y-11200D01*
X46645Y-11200D01*
X46645Y-11200D01*
G37*
G54D21*
X46645Y-11200D02*
X46305Y-11540D01*
X44820Y-11540D01*
X44705Y-11562D01*
X44607Y-11627D01*
X44027Y-12207D01*
X43962Y-12305D01*
X43940Y-12420D01*
X43940Y-13425D01*
X43715Y-13650D01*
X41830Y-13650D01*
X41715Y-13672D01*
X41617Y-13737D01*
X37075Y-18279D01*
X37116Y-18180D01*
X37117Y-17972D01*
X37037Y-17779D01*
X36889Y-17631D01*
X36696Y-17551D01*
X36488Y-17550D01*
X36295Y-17630D01*
X36147Y-17778D01*
X36067Y-17971D01*
X36066Y-18179D01*
X36146Y-18373D01*
X36294Y-18520D01*
X36316Y-18530D01*
X35070Y-18530D01*
X34955Y-18552D01*
X34857Y-18617D01*
X33045Y-20430D01*
X30890Y-20430D01*
X30775Y-20452D01*
X30677Y-20517D01*
X30221Y-20974D01*
X30197Y-20950D01*
X30004Y-20870D01*
X29796Y-20869D01*
X29603Y-20949D01*
X29455Y-21097D01*
X29399Y-21230D01*
X29345Y-21098D01*
X29197Y-20950D01*
X29004Y-20870D01*
X28796Y-20869D01*
X28603Y-20949D01*
X28455Y-21097D01*
X28399Y-21230D01*
X28345Y-21098D01*
X28197Y-20950D01*
X28004Y-20870D01*
X27796Y-20869D01*
X27603Y-20949D01*
X27455Y-21097D01*
X27399Y-21230D01*
X27345Y-21098D01*
X27197Y-20950D01*
X27004Y-20870D01*
X26796Y-20869D01*
X26603Y-20949D01*
X26455Y-21097D01*
X26375Y-21290D01*
X26374Y-21498D01*
X26454Y-21692D01*
X26602Y-21839D01*
X26795Y-21919D01*
X27003Y-21920D01*
X27197Y-21840D01*
X27344Y-21692D01*
X27400Y-21559D01*
X27454Y-21692D01*
X27602Y-21839D01*
X27795Y-21919D01*
X28003Y-21920D01*
X28197Y-21840D01*
X28344Y-21692D01*
X28400Y-21559D01*
X28454Y-21692D01*
X28602Y-21839D01*
X28795Y-21919D01*
X29003Y-21920D01*
X29197Y-21840D01*
X29344Y-21692D01*
X29400Y-21559D01*
X29454Y-21692D01*
X29602Y-21839D01*
X29795Y-21919D01*
X29815Y-21919D01*
X29687Y-22047D01*
X29622Y-22145D01*
X29600Y-22260D01*
X29600Y-23952D01*
X29455Y-24097D01*
X29399Y-24230D01*
X29345Y-24098D01*
X29197Y-23950D01*
X29004Y-23870D01*
X28796Y-23869D01*
X28603Y-23949D01*
X28455Y-24097D01*
X28399Y-24230D01*
X28345Y-24098D01*
X28197Y-23950D01*
X28004Y-23870D01*
X27796Y-23869D01*
X27603Y-23949D01*
X27455Y-24097D01*
X27399Y-24230D01*
X27345Y-24098D01*
X27197Y-23950D01*
X27004Y-23870D01*
X26796Y-23869D01*
X26603Y-23949D01*
X26455Y-24097D01*
X26375Y-24290D01*
X26374Y-24498D01*
X26454Y-24692D01*
X26602Y-24839D01*
X26795Y-24919D01*
X27003Y-24920D01*
X27197Y-24840D01*
X27344Y-24692D01*
X27400Y-24559D01*
X27454Y-24692D01*
X27602Y-24839D01*
X27795Y-24919D01*
X28003Y-24920D01*
X28197Y-24840D01*
X28344Y-24692D01*
X28400Y-24559D01*
X28454Y-24692D01*
X28602Y-24839D01*
X28795Y-24919D01*
X29003Y-24920D01*
X29197Y-24840D01*
X29344Y-24692D01*
X29400Y-24559D01*
X29454Y-24692D01*
X29602Y-24839D01*
X29795Y-24919D01*
X30003Y-24920D01*
X30197Y-24840D01*
X30344Y-24692D01*
X30400Y-24559D01*
X30454Y-24692D01*
X30602Y-24839D01*
X30795Y-24919D01*
X30830Y-24919D01*
X30830Y-26275D01*
X30775Y-26330D01*
X25982Y-26330D01*
X25809Y-26156D01*
X25711Y-26091D01*
X25694Y-26088D01*
X25694Y-24061D01*
X25683Y-23843D01*
X25621Y-23692D01*
X25525Y-23664D01*
X25455Y-23735D01*
X25455Y-23594D01*
X25427Y-23498D01*
X25221Y-23425D01*
X25003Y-23436D01*
X24852Y-23498D01*
X24824Y-23594D01*
X25140Y-23909D01*
X25455Y-23594D01*
X25455Y-23735D01*
X25210Y-23980D01*
X25525Y-24295D01*
X25621Y-24267D01*
X25694Y-24061D01*
X25694Y-26088D01*
X25597Y-26069D01*
X25042Y-26069D01*
X25042Y-26044D01*
X25004Y-25952D01*
X24933Y-25882D01*
X24841Y-25844D01*
X24750Y-25843D01*
X24930Y-25663D01*
X25062Y-25717D01*
X25270Y-25718D01*
X25464Y-25638D01*
X25611Y-25490D01*
X25691Y-25297D01*
X25692Y-25089D01*
X25612Y-24896D01*
X25464Y-24748D01*
X25455Y-24744D01*
X25455Y-24365D01*
X25140Y-24050D01*
X25069Y-24121D01*
X25069Y-23980D01*
X24754Y-23664D01*
X24658Y-23692D01*
X24652Y-23709D01*
X24632Y-23608D01*
X24567Y-23510D01*
X24469Y-23445D01*
X24355Y-23423D01*
X24272Y-23439D01*
X24249Y-23430D01*
X24031Y-23429D01*
X23828Y-23513D01*
X23690Y-23652D01*
X23690Y-23630D01*
X23652Y-23538D01*
X23581Y-23468D01*
X23489Y-23430D01*
X23390Y-23429D01*
X22790Y-23429D01*
X22698Y-23467D01*
X22628Y-23538D01*
X22590Y-23630D01*
X22589Y-23729D01*
X22589Y-24329D01*
X22627Y-24421D01*
X22698Y-24491D01*
X22790Y-24529D01*
X22889Y-24530D01*
X23489Y-24530D01*
X23581Y-24492D01*
X23651Y-24421D01*
X23689Y-24329D01*
X23689Y-24307D01*
X23828Y-24445D01*
X24030Y-24529D01*
X24248Y-24530D01*
X24451Y-24446D01*
X24605Y-24291D01*
X24637Y-24216D01*
X24658Y-24267D01*
X24754Y-24295D01*
X25069Y-23980D01*
X25069Y-24121D01*
X24824Y-24365D01*
X24852Y-24461D01*
X25058Y-24534D01*
X25276Y-24523D01*
X25427Y-24461D01*
X25455Y-24365D01*
X25455Y-24744D01*
X25271Y-24668D01*
X25063Y-24667D01*
X24870Y-24747D01*
X24722Y-24895D01*
X24666Y-25028D01*
X24612Y-24896D01*
X24464Y-24748D01*
X24271Y-24668D01*
X24063Y-24667D01*
X23870Y-24747D01*
X23722Y-24895D01*
X23692Y-24967D01*
X23692Y-24967D01*
X23691Y-24868D01*
X23653Y-24776D01*
X23583Y-24705D01*
X23491Y-24667D01*
X23279Y-24668D01*
X23217Y-24730D01*
X23217Y-25143D01*
X23224Y-25143D01*
X23224Y-25243D01*
X23217Y-25243D01*
X23217Y-25655D01*
X23279Y-25718D01*
X23491Y-25718D01*
X23583Y-25680D01*
X23653Y-25609D01*
X23691Y-25517D01*
X23692Y-25418D01*
X23692Y-25418D01*
X23721Y-25490D01*
X23869Y-25637D01*
X24037Y-25707D01*
X24007Y-25737D01*
X23942Y-25835D01*
X23941Y-25843D01*
X23642Y-25843D01*
X23550Y-25881D01*
X23480Y-25952D01*
X23442Y-26044D01*
X23442Y-26069D01*
X23117Y-26069D01*
X23117Y-25655D01*
X23117Y-25243D01*
X23117Y-25143D01*
X23117Y-24730D01*
X23054Y-24668D01*
X22842Y-24667D01*
X22750Y-24705D01*
X22680Y-24776D01*
X22642Y-24868D01*
X22641Y-24967D01*
X22642Y-25080D01*
X22704Y-25143D01*
X23117Y-25143D01*
X23117Y-25243D01*
X22704Y-25243D01*
X22642Y-25305D01*
X22641Y-25418D01*
X22642Y-25517D01*
X22680Y-25609D01*
X22750Y-25680D01*
X22842Y-25718D01*
X23054Y-25718D01*
X23117Y-25655D01*
X23117Y-26069D01*
X22137Y-26069D01*
X22022Y-26091D01*
X21924Y-26156D01*
X21500Y-26581D01*
X21500Y-26040D01*
X21500Y-25040D01*
X21462Y-24948D01*
X21391Y-24878D01*
X21299Y-24840D01*
X21200Y-24839D01*
X20200Y-24839D01*
X20108Y-24877D01*
X20038Y-24948D01*
X20000Y-25040D01*
X19999Y-25139D01*
X19999Y-26139D01*
X20037Y-26231D01*
X20108Y-26301D01*
X20200Y-26339D01*
X20299Y-26340D01*
X21299Y-26340D01*
X21391Y-26302D01*
X21461Y-26231D01*
X21499Y-26139D01*
X21500Y-26040D01*
X21500Y-26581D01*
X21141Y-26940D01*
X20899Y-26840D01*
X20601Y-26839D01*
X20325Y-26953D01*
X20114Y-27164D01*
X20000Y-27440D01*
X19999Y-27738D01*
X20113Y-28014D01*
X20324Y-28225D01*
X20600Y-28339D01*
X20898Y-28340D01*
X21174Y-28226D01*
X21385Y-28015D01*
X21499Y-27739D01*
X21500Y-27441D01*
X21496Y-27433D01*
X22261Y-26669D01*
X23441Y-26669D01*
X23441Y-26693D01*
X23477Y-26779D01*
X23355Y-26729D01*
X23147Y-26728D01*
X22954Y-26808D01*
X22806Y-26956D01*
X22726Y-27149D01*
X22725Y-27357D01*
X22805Y-27551D01*
X22951Y-27696D01*
X22951Y-29811D01*
X22806Y-29956D01*
X22726Y-30149D01*
X22725Y-30357D01*
X22805Y-30551D01*
X22877Y-30623D01*
X21503Y-30630D01*
X21503Y-29719D01*
X21495Y-29421D01*
X21396Y-29181D01*
X21280Y-29130D01*
X21209Y-29200D01*
X21209Y-29059D01*
X21158Y-28943D01*
X20879Y-28836D01*
X20581Y-28844D01*
X20341Y-28943D01*
X20290Y-29059D01*
X20750Y-29519D01*
X21209Y-29059D01*
X21209Y-29200D01*
X20820Y-29590D01*
X21280Y-30049D01*
X21396Y-29998D01*
X21503Y-29719D01*
X21503Y-30630D01*
X21209Y-30632D01*
X21209Y-30120D01*
X20750Y-29660D01*
X20679Y-29731D01*
X20679Y-29590D01*
X20219Y-29130D01*
X20103Y-29181D01*
X19996Y-29460D01*
X20004Y-29758D01*
X20103Y-29998D01*
X20219Y-30049D01*
X20679Y-29590D01*
X20679Y-29731D01*
X20290Y-30120D01*
X20341Y-30236D01*
X20620Y-30343D01*
X20918Y-30335D01*
X21158Y-30236D01*
X21209Y-30120D01*
X21209Y-30632D01*
X19111Y-30644D01*
X19100Y-11200D01*
X46645Y-11200D01*
G54D10*
G36*
X52950Y-30450D02*
X52735Y-30451D01*
X52735Y-12180D01*
X52420Y-11865D01*
X52104Y-12180D01*
X52132Y-12276D01*
X52338Y-12349D01*
X52556Y-12338D01*
X52707Y-12276D01*
X52735Y-12180D01*
X52735Y-30451D01*
X47772Y-30480D01*
X47772Y-20056D01*
X47772Y-19563D01*
X47734Y-19471D01*
X47664Y-19401D01*
X47572Y-19362D01*
X47535Y-19362D01*
X47473Y-19425D01*
X47473Y-19759D01*
X47710Y-19759D01*
X47772Y-19697D01*
X47772Y-19563D01*
X47772Y-20056D01*
X47772Y-19922D01*
X47710Y-19859D01*
X47473Y-19859D01*
X47473Y-20194D01*
X47535Y-20256D01*
X47572Y-20256D01*
X47664Y-20218D01*
X47734Y-20147D01*
X47772Y-20056D01*
X47772Y-30480D01*
X47374Y-30482D01*
X47374Y-20194D01*
X47374Y-19859D01*
X47374Y-19759D01*
X47374Y-19425D01*
X47312Y-19362D01*
X47275Y-19362D01*
X47183Y-19401D01*
X47113Y-19471D01*
X47075Y-19563D01*
X47075Y-19697D01*
X47138Y-19759D01*
X47374Y-19759D01*
X47374Y-19859D01*
X47138Y-19859D01*
X47075Y-19922D01*
X47075Y-20056D01*
X47113Y-20147D01*
X47183Y-20218D01*
X47275Y-20256D01*
X47312Y-20256D01*
X47374Y-20194D01*
X47374Y-30482D01*
X46985Y-30484D01*
X46985Y-19957D01*
X46985Y-19563D01*
X46947Y-19471D01*
X46876Y-19401D01*
X46785Y-19362D01*
X46685Y-19362D01*
X46488Y-19362D01*
X46396Y-19400D01*
X46326Y-19471D01*
X46288Y-19562D01*
X46288Y-19662D01*
X46288Y-20056D01*
X46326Y-20147D01*
X46396Y-20218D01*
X46488Y-20256D01*
X46587Y-20256D01*
X46784Y-20256D01*
X46876Y-20218D01*
X46946Y-20148D01*
X46985Y-20056D01*
X46985Y-19957D01*
X46985Y-30484D01*
X46197Y-30489D01*
X46197Y-19957D01*
X46197Y-19563D01*
X46159Y-19471D01*
X46089Y-19401D01*
X45997Y-19362D01*
X45898Y-19362D01*
X45701Y-19362D01*
X45609Y-19400D01*
X45539Y-19471D01*
X45500Y-19562D01*
X45500Y-19662D01*
X45500Y-20056D01*
X45538Y-20147D01*
X45549Y-20158D01*
X45549Y-20179D01*
X45361Y-20366D01*
X45361Y-20158D01*
X45372Y-20148D01*
X45410Y-20056D01*
X45410Y-19957D01*
X45410Y-19563D01*
X45372Y-19471D01*
X45302Y-19401D01*
X45210Y-19362D01*
X45110Y-19362D01*
X44913Y-19362D01*
X44822Y-19400D01*
X44751Y-19471D01*
X44713Y-19562D01*
X44713Y-19662D01*
X44713Y-20056D01*
X44751Y-20147D01*
X44761Y-20158D01*
X44761Y-20553D01*
X43330Y-21985D01*
X41184Y-21985D01*
X41204Y-21934D01*
X41205Y-21765D01*
X41140Y-21609D01*
X41021Y-21489D01*
X40864Y-21425D01*
X40695Y-21424D01*
X40539Y-21489D01*
X40517Y-21512D01*
X39406Y-21512D01*
X39454Y-21394D01*
X39455Y-21176D01*
X39371Y-20973D01*
X39216Y-20819D01*
X39014Y-20735D01*
X38796Y-20734D01*
X38593Y-20818D01*
X38455Y-20957D01*
X38455Y-20935D01*
X38417Y-20843D01*
X38346Y-20773D01*
X38254Y-20735D01*
X38155Y-20734D01*
X37555Y-20734D01*
X37463Y-20772D01*
X37393Y-20843D01*
X37355Y-20935D01*
X37354Y-21034D01*
X37354Y-21537D01*
X37261Y-21599D01*
X37121Y-21739D01*
X37121Y-20151D01*
X37110Y-19943D01*
X37052Y-19803D01*
X36959Y-19778D01*
X36889Y-19849D01*
X36889Y-19708D01*
X36864Y-19615D01*
X36667Y-19546D01*
X36459Y-19557D01*
X36319Y-19615D01*
X36294Y-19708D01*
X36592Y-20005D01*
X36889Y-19708D01*
X36889Y-19849D01*
X36662Y-20076D01*
X36959Y-20373D01*
X37052Y-20348D01*
X37121Y-20151D01*
X37121Y-21739D01*
X37037Y-21823D01*
X36972Y-21921D01*
X36950Y-22036D01*
X36950Y-26940D01*
X36915Y-26975D01*
X36889Y-26975D01*
X36889Y-20443D01*
X36592Y-20146D01*
X36521Y-20217D01*
X36521Y-20076D01*
X36224Y-19778D01*
X36131Y-19803D01*
X36062Y-20000D01*
X36073Y-20208D01*
X36131Y-20348D01*
X36224Y-20373D01*
X36521Y-20076D01*
X36521Y-20217D01*
X36294Y-20443D01*
X36319Y-20536D01*
X36516Y-20605D01*
X36724Y-20594D01*
X36864Y-20536D01*
X36889Y-20443D01*
X36889Y-26975D01*
X36429Y-26975D01*
X36429Y-24470D01*
X36418Y-24262D01*
X36360Y-24122D01*
X36267Y-24097D01*
X35970Y-24395D01*
X36267Y-24692D01*
X36360Y-24667D01*
X36429Y-24470D01*
X36429Y-26975D01*
X35631Y-26975D01*
X35571Y-26914D01*
X35414Y-26850D01*
X35245Y-26849D01*
X35089Y-26914D01*
X34969Y-27033D01*
X34905Y-27190D01*
X34904Y-27359D01*
X34969Y-27515D01*
X35088Y-27635D01*
X35245Y-27699D01*
X35414Y-27700D01*
X35570Y-27635D01*
X35631Y-27575D01*
X37040Y-27575D01*
X37040Y-27574D01*
X37154Y-27552D01*
X37154Y-27552D01*
X37252Y-27487D01*
X37462Y-27277D01*
X37462Y-27277D01*
X37527Y-27179D01*
X37549Y-27065D01*
X37550Y-27065D01*
X37550Y-24707D01*
X37593Y-24750D01*
X37795Y-24834D01*
X38013Y-24835D01*
X38216Y-24751D01*
X38370Y-24596D01*
X38404Y-24515D01*
X38438Y-24596D01*
X38593Y-24750D01*
X38795Y-24834D01*
X39013Y-24835D01*
X39216Y-24751D01*
X39370Y-24596D01*
X39454Y-24394D01*
X39455Y-24176D01*
X39371Y-23973D01*
X39216Y-23819D01*
X39135Y-23785D01*
X39216Y-23751D01*
X39246Y-23720D01*
X39427Y-23902D01*
X39427Y-23902D01*
X39525Y-23967D01*
X39640Y-23990D01*
X41420Y-23990D01*
X41420Y-23989D01*
X41534Y-23967D01*
X41534Y-23967D01*
X41632Y-23902D01*
X42556Y-22977D01*
X42561Y-23062D01*
X42619Y-23202D01*
X42712Y-23227D01*
X43009Y-22930D01*
X43003Y-22924D01*
X43074Y-22853D01*
X43080Y-22859D01*
X43085Y-22853D01*
X43156Y-22924D01*
X43150Y-22930D01*
X43447Y-23227D01*
X43540Y-23202D01*
X43609Y-23005D01*
X43598Y-22797D01*
X43593Y-22785D01*
X43667Y-22785D01*
X43667Y-22785D01*
X43782Y-22762D01*
X43782Y-22762D01*
X43880Y-22697D01*
X46061Y-20515D01*
X46061Y-20515D01*
X46126Y-20418D01*
X46149Y-20303D01*
X46149Y-20303D01*
X46149Y-20158D01*
X46159Y-20148D01*
X46197Y-20056D01*
X46197Y-19957D01*
X46197Y-30489D01*
X43377Y-30505D01*
X43377Y-23297D01*
X43080Y-23000D01*
X42782Y-23297D01*
X42807Y-23390D01*
X43004Y-23459D01*
X43212Y-23448D01*
X43352Y-23390D01*
X43377Y-23297D01*
X43377Y-30505D01*
X29830Y-30583D01*
X29830Y-28730D01*
X29830Y-27730D01*
X29792Y-27638D01*
X29721Y-27568D01*
X29629Y-27530D01*
X29530Y-27529D01*
X28530Y-27529D01*
X28438Y-27567D01*
X28368Y-27638D01*
X28330Y-27730D01*
X28329Y-27829D01*
X28329Y-28829D01*
X28367Y-28921D01*
X28438Y-28991D01*
X28530Y-29029D01*
X28629Y-29030D01*
X29629Y-29030D01*
X29721Y-28992D01*
X29791Y-28921D01*
X29829Y-28829D01*
X29830Y-28730D01*
X29830Y-30583D01*
X27833Y-30594D01*
X27833Y-28409D01*
X27825Y-28111D01*
X27726Y-27871D01*
X27610Y-27820D01*
X27539Y-27890D01*
X27539Y-27749D01*
X27488Y-27633D01*
X27209Y-27526D01*
X26911Y-27534D01*
X26671Y-27633D01*
X26620Y-27749D01*
X27080Y-28209D01*
X27539Y-27749D01*
X27539Y-27890D01*
X27150Y-28280D01*
X27610Y-28739D01*
X27726Y-28688D01*
X27833Y-28409D01*
X27833Y-30594D01*
X27539Y-30596D01*
X27539Y-28810D01*
X27080Y-28350D01*
X27009Y-28421D01*
X27009Y-28280D01*
X26549Y-27820D01*
X26433Y-27871D01*
X26326Y-28150D01*
X26334Y-28448D01*
X26433Y-28688D01*
X26549Y-28739D01*
X27009Y-28280D01*
X27009Y-28421D01*
X26620Y-28810D01*
X26671Y-28926D01*
X26950Y-29033D01*
X27248Y-29025D01*
X27488Y-28926D01*
X27539Y-28810D01*
X27539Y-30596D01*
X25780Y-30606D01*
X25653Y-30607D01*
X25664Y-30596D01*
X25618Y-30551D01*
X25711Y-30526D01*
X25780Y-30329D01*
X25780Y-27329D01*
X25769Y-27121D01*
X25711Y-26981D01*
X25618Y-26956D01*
X25321Y-27254D01*
X25618Y-27551D01*
X25711Y-27526D01*
X25780Y-27329D01*
X25780Y-30329D01*
X25769Y-30121D01*
X25711Y-29981D01*
X25618Y-29956D01*
X25548Y-30027D01*
X25548Y-29886D01*
X25548Y-27621D01*
X25251Y-27324D01*
X25180Y-27395D01*
X24953Y-27621D01*
X24978Y-27714D01*
X25175Y-27783D01*
X25383Y-27772D01*
X25523Y-27714D01*
X25548Y-27621D01*
X25548Y-29886D01*
X25523Y-29793D01*
X25326Y-29724D01*
X25118Y-29735D01*
X24978Y-29793D01*
X24953Y-29886D01*
X25251Y-30183D01*
X25548Y-29886D01*
X25548Y-30027D01*
X25321Y-30254D01*
X25327Y-30259D01*
X25256Y-30330D01*
X25251Y-30324D01*
X25245Y-30330D01*
X25180Y-30265D01*
X25174Y-30259D01*
X25180Y-30254D01*
X24883Y-29956D01*
X24790Y-29981D01*
X24721Y-30178D01*
X24732Y-30386D01*
X24790Y-30526D01*
X24883Y-30551D01*
X24837Y-30596D01*
X24853Y-30611D01*
X23628Y-30618D01*
X23695Y-30551D01*
X23775Y-30358D01*
X23776Y-30150D01*
X23696Y-29957D01*
X23551Y-29811D01*
X23551Y-27696D01*
X23693Y-27554D01*
X23843Y-27554D01*
X23843Y-27553D01*
X23957Y-27531D01*
X23957Y-27531D01*
X24055Y-27466D01*
X24432Y-27089D01*
X24432Y-27089D01*
X24497Y-26991D01*
X24516Y-26894D01*
X24516Y-26894D01*
X24841Y-26894D01*
X24865Y-26884D01*
X24837Y-26911D01*
X24883Y-26956D01*
X24790Y-26981D01*
X24721Y-27178D01*
X24732Y-27386D01*
X24790Y-27526D01*
X24883Y-27551D01*
X25180Y-27254D01*
X25174Y-27248D01*
X25245Y-27177D01*
X25251Y-27183D01*
X25548Y-26886D01*
X25523Y-26793D01*
X25326Y-26724D01*
X25118Y-26735D01*
X25005Y-26782D01*
X25041Y-26693D01*
X25041Y-26669D01*
X25472Y-26669D01*
X25645Y-26842D01*
X25645Y-26842D01*
X25743Y-26907D01*
X25857Y-26929D01*
X25858Y-26930D01*
X30900Y-26930D01*
X30900Y-26929D01*
X31014Y-26907D01*
X31014Y-26907D01*
X31112Y-26842D01*
X31342Y-26612D01*
X31342Y-26612D01*
X31407Y-26514D01*
X31429Y-26400D01*
X31430Y-26400D01*
X31430Y-24632D01*
X31454Y-24692D01*
X31602Y-24839D01*
X31795Y-24919D01*
X32003Y-24920D01*
X32197Y-24840D01*
X32344Y-24692D01*
X32400Y-24559D01*
X32454Y-24692D01*
X32602Y-24839D01*
X32795Y-24919D01*
X33003Y-24920D01*
X33197Y-24840D01*
X33344Y-24692D01*
X33400Y-24559D01*
X33454Y-24692D01*
X33602Y-24839D01*
X33795Y-24919D01*
X34003Y-24920D01*
X34197Y-24840D01*
X34344Y-24692D01*
X34400Y-24559D01*
X34454Y-24692D01*
X34602Y-24839D01*
X34795Y-24919D01*
X35003Y-24920D01*
X35090Y-24884D01*
X35090Y-25935D01*
X35031Y-25994D01*
X34909Y-26044D01*
X34789Y-26163D01*
X34725Y-26320D01*
X34724Y-26489D01*
X34789Y-26645D01*
X34908Y-26765D01*
X35065Y-26829D01*
X35234Y-26830D01*
X35390Y-26765D01*
X35510Y-26646D01*
X35574Y-26489D01*
X35575Y-26320D01*
X35568Y-26305D01*
X35602Y-26272D01*
X35602Y-26272D01*
X35667Y-26174D01*
X35689Y-26060D01*
X35690Y-26060D01*
X35690Y-24877D01*
X35824Y-24924D01*
X36032Y-24913D01*
X36172Y-24855D01*
X36197Y-24762D01*
X35900Y-24465D01*
X35894Y-24471D01*
X35823Y-24400D01*
X35829Y-24395D01*
X35823Y-24389D01*
X35894Y-24318D01*
X35900Y-24324D01*
X36197Y-24027D01*
X36172Y-23934D01*
X35975Y-23865D01*
X35968Y-23865D01*
X36112Y-23722D01*
X36112Y-23722D01*
X36177Y-23624D01*
X36199Y-23510D01*
X36200Y-23510D01*
X36200Y-21920D01*
X36224Y-21920D01*
X36316Y-21882D01*
X36386Y-21811D01*
X36424Y-21719D01*
X36425Y-21620D01*
X36425Y-21070D01*
X36387Y-20978D01*
X36316Y-20908D01*
X36224Y-20870D01*
X36125Y-20869D01*
X35575Y-20869D01*
X35483Y-20907D01*
X35413Y-20978D01*
X35375Y-21070D01*
X35374Y-21169D01*
X35374Y-21169D01*
X35345Y-21098D01*
X35197Y-20950D01*
X35004Y-20870D01*
X34965Y-20870D01*
X35056Y-20779D01*
X35077Y-20747D01*
X35231Y-20810D01*
X35439Y-20811D01*
X35633Y-20731D01*
X35780Y-20583D01*
X35860Y-20390D01*
X35861Y-20182D01*
X35781Y-19989D01*
X35633Y-19841D01*
X35440Y-19761D01*
X35232Y-19760D01*
X35144Y-19797D01*
X35144Y-19617D01*
X35365Y-19396D01*
X36970Y-19396D01*
X36970Y-19395D01*
X37084Y-19373D01*
X37084Y-19373D01*
X37182Y-19308D01*
X41975Y-14515D01*
X42459Y-14515D01*
X42389Y-14585D01*
X42351Y-14677D01*
X42351Y-14776D01*
X42351Y-15170D01*
X42389Y-15262D01*
X42399Y-15272D01*
X42399Y-16179D01*
X42422Y-16294D01*
X42487Y-16391D01*
X43127Y-17032D01*
X43127Y-17032D01*
X43225Y-17097D01*
X43340Y-17120D01*
X45728Y-17120D01*
X45720Y-17140D01*
X45719Y-17309D01*
X45784Y-17465D01*
X45804Y-17485D01*
X39883Y-17485D01*
X39768Y-17507D01*
X39700Y-17552D01*
X39696Y-17551D01*
X39488Y-17550D01*
X39295Y-17630D01*
X39147Y-17778D01*
X39067Y-17971D01*
X39066Y-18179D01*
X39146Y-18373D01*
X39294Y-18520D01*
X39487Y-18600D01*
X39695Y-18601D01*
X39889Y-18521D01*
X40036Y-18373D01*
X40116Y-18180D01*
X40116Y-18085D01*
X44262Y-18085D01*
X44198Y-18097D01*
X44100Y-18162D01*
X43536Y-18726D01*
X43536Y-18726D01*
X43274Y-18988D01*
X43209Y-19086D01*
X43187Y-19200D01*
X43187Y-19460D01*
X43176Y-19471D01*
X43138Y-19562D01*
X43138Y-19662D01*
X43138Y-20056D01*
X43176Y-20147D01*
X43246Y-20218D01*
X43332Y-20253D01*
X43180Y-20405D01*
X43048Y-20404D01*
X43048Y-19957D01*
X43048Y-19563D01*
X43010Y-19471D01*
X42939Y-19401D01*
X42848Y-19362D01*
X42748Y-19362D01*
X42551Y-19362D01*
X42459Y-19400D01*
X42389Y-19471D01*
X42351Y-19562D01*
X42351Y-19662D01*
X42351Y-20056D01*
X42389Y-20147D01*
X42459Y-20218D01*
X42551Y-20256D01*
X42650Y-20256D01*
X42847Y-20256D01*
X42939Y-20218D01*
X43009Y-20148D01*
X43048Y-20056D01*
X43048Y-19957D01*
X43048Y-20404D01*
X42976Y-20404D01*
X42783Y-20484D01*
X42637Y-20630D01*
X40522Y-20630D01*
X40377Y-20485D01*
X40184Y-20405D01*
X40121Y-20405D01*
X39991Y-20404D01*
X39959Y-20373D01*
X40052Y-20348D01*
X40121Y-20151D01*
X40110Y-19943D01*
X40052Y-19803D01*
X39959Y-19778D01*
X39889Y-19849D01*
X39889Y-19708D01*
X39864Y-19615D01*
X39667Y-19546D01*
X39459Y-19557D01*
X39319Y-19615D01*
X39294Y-19708D01*
X39592Y-20005D01*
X39889Y-19708D01*
X39889Y-19849D01*
X39662Y-20076D01*
X39668Y-20081D01*
X39597Y-20152D01*
X39592Y-20146D01*
X39521Y-20217D01*
X39521Y-20076D01*
X39224Y-19778D01*
X39131Y-19803D01*
X39062Y-20000D01*
X39073Y-20208D01*
X39131Y-20348D01*
X39224Y-20373D01*
X39521Y-20076D01*
X39521Y-20217D01*
X39294Y-20443D01*
X39319Y-20536D01*
X39516Y-20605D01*
X39669Y-20597D01*
X39635Y-20632D01*
X39555Y-20825D01*
X39554Y-21033D01*
X39634Y-21227D01*
X39782Y-21374D01*
X39975Y-21454D01*
X40183Y-21455D01*
X40377Y-21375D01*
X40522Y-21230D01*
X42637Y-21230D01*
X42782Y-21374D01*
X42975Y-21454D01*
X43183Y-21455D01*
X43377Y-21375D01*
X43524Y-21227D01*
X43604Y-21034D01*
X43605Y-20829D01*
X44092Y-20342D01*
X44092Y-20342D01*
X44149Y-20256D01*
X44225Y-20256D01*
X44422Y-20256D01*
X44514Y-20218D01*
X44584Y-20148D01*
X44622Y-20056D01*
X44622Y-19957D01*
X44622Y-19563D01*
X44584Y-19471D01*
X44514Y-19401D01*
X44422Y-19362D01*
X44323Y-19362D01*
X44180Y-19362D01*
X44180Y-19070D01*
X44157Y-18955D01*
X44157Y-18955D01*
X44437Y-18675D01*
X45350Y-18675D01*
X45338Y-18686D01*
X45274Y-18843D01*
X45273Y-19012D01*
X45338Y-19168D01*
X45457Y-19288D01*
X45614Y-19352D01*
X45783Y-19353D01*
X45939Y-19288D01*
X46059Y-19169D01*
X46123Y-19012D01*
X46124Y-18843D01*
X46059Y-18687D01*
X46046Y-18675D01*
X48460Y-18675D01*
X48460Y-18674D01*
X48574Y-18652D01*
X48574Y-18652D01*
X48672Y-18587D01*
X49054Y-18205D01*
X49379Y-18205D01*
X49471Y-18167D01*
X49541Y-18096D01*
X49579Y-18004D01*
X49580Y-17905D01*
X49580Y-17714D01*
X49776Y-17714D01*
X49776Y-17713D01*
X49890Y-17691D01*
X49890Y-17691D01*
X49988Y-17626D01*
X50019Y-17595D01*
X50084Y-17497D01*
X50106Y-17383D01*
X50107Y-17383D01*
X50107Y-16753D01*
X50084Y-16638D01*
X50019Y-16540D01*
X50019Y-16540D01*
X49798Y-16319D01*
X49700Y-16254D01*
X49586Y-16232D01*
X48270Y-16232D01*
X47724Y-15685D01*
X47724Y-15272D01*
X47734Y-15262D01*
X47772Y-15170D01*
X47772Y-15071D01*
X47772Y-14677D01*
X47734Y-14585D01*
X47664Y-14515D01*
X47572Y-14477D01*
X47472Y-14476D01*
X47276Y-14476D01*
X47184Y-14514D01*
X47173Y-14525D01*
X46887Y-14525D01*
X46876Y-14515D01*
X46785Y-14477D01*
X46685Y-14476D01*
X46488Y-14476D01*
X46418Y-14506D01*
X46418Y-14110D01*
X46353Y-13953D01*
X46233Y-13833D01*
X46076Y-13768D01*
X45906Y-13767D01*
X45749Y-13832D01*
X45629Y-13952D01*
X45564Y-14109D01*
X45563Y-14279D01*
X45628Y-14436D01*
X45678Y-14486D01*
X45609Y-14515D01*
X45538Y-14585D01*
X45500Y-14677D01*
X45500Y-14811D01*
X45563Y-14873D01*
X45800Y-14873D01*
X45800Y-14866D01*
X45898Y-14866D01*
X45898Y-14873D01*
X46135Y-14873D01*
X46197Y-14811D01*
X46197Y-14677D01*
X46160Y-14587D01*
X46232Y-14557D01*
X46352Y-14437D01*
X46417Y-14280D01*
X46418Y-14110D01*
X46418Y-14506D01*
X46396Y-14514D01*
X46326Y-14585D01*
X46288Y-14677D01*
X46288Y-14776D01*
X46288Y-15170D01*
X46326Y-15262D01*
X46396Y-15332D01*
X46488Y-15370D01*
X46587Y-15370D01*
X46784Y-15370D01*
X46876Y-15332D01*
X46946Y-15262D01*
X46985Y-15170D01*
X46985Y-15125D01*
X47075Y-15125D01*
X47075Y-15170D01*
X47113Y-15262D01*
X47124Y-15272D01*
X47124Y-15810D01*
X47146Y-15924D01*
X47211Y-16022D01*
X47799Y-16609D01*
X47797Y-16609D01*
X47705Y-16647D01*
X47635Y-16718D01*
X47628Y-16735D01*
X47129Y-16735D01*
X47002Y-16607D01*
X46904Y-16542D01*
X46790Y-16520D01*
X46756Y-16520D01*
X46550Y-16520D01*
X46197Y-16520D01*
X46197Y-15170D01*
X46197Y-15036D01*
X46135Y-14973D01*
X45898Y-14973D01*
X45898Y-15308D01*
X45960Y-15370D01*
X45997Y-15370D01*
X46089Y-15332D01*
X46159Y-15262D01*
X46197Y-15170D01*
X46197Y-16520D01*
X45800Y-16520D01*
X45800Y-15308D01*
X45800Y-14973D01*
X45563Y-14973D01*
X45500Y-15036D01*
X45500Y-15170D01*
X45538Y-15262D01*
X45609Y-15332D01*
X45700Y-15370D01*
X45737Y-15370D01*
X45800Y-15308D01*
X45800Y-16520D01*
X43464Y-16520D01*
X42999Y-16055D01*
X42999Y-15508D01*
X43109Y-15619D01*
X43207Y-15684D01*
X43322Y-15707D01*
X44515Y-15707D01*
X44515Y-15706D01*
X44629Y-15684D01*
X44629Y-15684D01*
X44727Y-15619D01*
X44884Y-15462D01*
X44945Y-15370D01*
X45012Y-15370D01*
X45209Y-15370D01*
X45301Y-15332D01*
X45372Y-15262D01*
X45410Y-15170D01*
X45410Y-15071D01*
X45410Y-14677D01*
X45372Y-14585D01*
X45302Y-14515D01*
X45210Y-14477D01*
X45110Y-14476D01*
X44972Y-14476D01*
X44972Y-12848D01*
X45109Y-12711D01*
X49962Y-12711D01*
X49962Y-12710D01*
X50076Y-12688D01*
X50076Y-12688D01*
X50174Y-12623D01*
X50452Y-12345D01*
X50528Y-12345D01*
X50731Y-12261D01*
X50885Y-12106D01*
X50919Y-12025D01*
X50953Y-12106D01*
X51108Y-12260D01*
X51310Y-12344D01*
X51528Y-12345D01*
X51731Y-12261D01*
X51885Y-12106D01*
X51917Y-12031D01*
X51938Y-12082D01*
X52034Y-12110D01*
X52349Y-11795D01*
X52034Y-11479D01*
X51938Y-11507D01*
X51919Y-11562D01*
X51886Y-11483D01*
X51731Y-11329D01*
X51529Y-11245D01*
X51311Y-11244D01*
X51108Y-11328D01*
X50954Y-11483D01*
X50920Y-11564D01*
X50886Y-11483D01*
X50731Y-11329D01*
X50529Y-11245D01*
X50311Y-11244D01*
X50108Y-11328D01*
X49954Y-11483D01*
X49920Y-11564D01*
X49886Y-11483D01*
X49731Y-11329D01*
X49529Y-11245D01*
X49311Y-11244D01*
X49299Y-11249D01*
X49249Y-11200D01*
X52950Y-11200D01*
X52950Y-11624D01*
X52901Y-11507D01*
X52805Y-11479D01*
X52735Y-11550D01*
X52735Y-11409D01*
X52707Y-11313D01*
X52501Y-11240D01*
X52283Y-11251D01*
X52132Y-11313D01*
X52104Y-11409D01*
X52420Y-11724D01*
X52735Y-11409D01*
X52735Y-11550D01*
X52490Y-11795D01*
X52805Y-12110D01*
X52901Y-12082D01*
X52950Y-11946D01*
X52950Y-30450D01*
X52950Y-30450D01*
G37*
G54D21*
X52950Y-30450D02*
X52735Y-30451D01*
X52735Y-12180D01*
X52420Y-11865D01*
X52104Y-12180D01*
X52132Y-12276D01*
X52338Y-12349D01*
X52556Y-12338D01*
X52707Y-12276D01*
X52735Y-12180D01*
X52735Y-30451D01*
X47772Y-30480D01*
X47772Y-20056D01*
X47772Y-19563D01*
X47734Y-19471D01*
X47664Y-19401D01*
X47572Y-19362D01*
X47535Y-19362D01*
X47473Y-19425D01*
X47473Y-19759D01*
X47710Y-19759D01*
X47772Y-19697D01*
X47772Y-19563D01*
X47772Y-20056D01*
X47772Y-19922D01*
X47710Y-19859D01*
X47473Y-19859D01*
X47473Y-20194D01*
X47535Y-20256D01*
X47572Y-20256D01*
X47664Y-20218D01*
X47734Y-20147D01*
X47772Y-20056D01*
X47772Y-30480D01*
X47374Y-30482D01*
X47374Y-20194D01*
X47374Y-19859D01*
X47374Y-19759D01*
X47374Y-19425D01*
X47312Y-19362D01*
X47275Y-19362D01*
X47183Y-19401D01*
X47113Y-19471D01*
X47075Y-19563D01*
X47075Y-19697D01*
X47138Y-19759D01*
X47374Y-19759D01*
X47374Y-19859D01*
X47138Y-19859D01*
X47075Y-19922D01*
X47075Y-20056D01*
X47113Y-20147D01*
X47183Y-20218D01*
X47275Y-20256D01*
X47312Y-20256D01*
X47374Y-20194D01*
X47374Y-30482D01*
X46985Y-30484D01*
X46985Y-19957D01*
X46985Y-19563D01*
X46947Y-19471D01*
X46876Y-19401D01*
X46785Y-19362D01*
X46685Y-19362D01*
X46488Y-19362D01*
X46396Y-19400D01*
X46326Y-19471D01*
X46288Y-19562D01*
X46288Y-19662D01*
X46288Y-20056D01*
X46326Y-20147D01*
X46396Y-20218D01*
X46488Y-20256D01*
X46587Y-20256D01*
X46784Y-20256D01*
X46876Y-20218D01*
X46946Y-20148D01*
X46985Y-20056D01*
X46985Y-19957D01*
X46985Y-30484D01*
X46197Y-30489D01*
X46197Y-19957D01*
X46197Y-19563D01*
X46159Y-19471D01*
X46089Y-19401D01*
X45997Y-19362D01*
X45898Y-19362D01*
X45701Y-19362D01*
X45609Y-19400D01*
X45539Y-19471D01*
X45500Y-19562D01*
X45500Y-19662D01*
X45500Y-20056D01*
X45538Y-20147D01*
X45549Y-20158D01*
X45549Y-20179D01*
X45361Y-20366D01*
X45361Y-20158D01*
X45372Y-20148D01*
X45410Y-20056D01*
X45410Y-19957D01*
X45410Y-19563D01*
X45372Y-19471D01*
X45302Y-19401D01*
X45210Y-19362D01*
X45110Y-19362D01*
X44913Y-19362D01*
X44822Y-19400D01*
X44751Y-19471D01*
X44713Y-19562D01*
X44713Y-19662D01*
X44713Y-20056D01*
X44751Y-20147D01*
X44761Y-20158D01*
X44761Y-20553D01*
X43330Y-21985D01*
X41184Y-21985D01*
X41204Y-21934D01*
X41205Y-21765D01*
X41140Y-21609D01*
X41021Y-21489D01*
X40864Y-21425D01*
X40695Y-21424D01*
X40539Y-21489D01*
X40517Y-21512D01*
X39406Y-21512D01*
X39454Y-21394D01*
X39455Y-21176D01*
X39371Y-20973D01*
X39216Y-20819D01*
X39014Y-20735D01*
X38796Y-20734D01*
X38593Y-20818D01*
X38455Y-20957D01*
X38455Y-20935D01*
X38417Y-20843D01*
X38346Y-20773D01*
X38254Y-20735D01*
X38155Y-20734D01*
X37555Y-20734D01*
X37463Y-20772D01*
X37393Y-20843D01*
X37355Y-20935D01*
X37354Y-21034D01*
X37354Y-21537D01*
X37261Y-21599D01*
X37121Y-21739D01*
X37121Y-20151D01*
X37110Y-19943D01*
X37052Y-19803D01*
X36959Y-19778D01*
X36889Y-19849D01*
X36889Y-19708D01*
X36864Y-19615D01*
X36667Y-19546D01*
X36459Y-19557D01*
X36319Y-19615D01*
X36294Y-19708D01*
X36592Y-20005D01*
X36889Y-19708D01*
X36889Y-19849D01*
X36662Y-20076D01*
X36959Y-20373D01*
X37052Y-20348D01*
X37121Y-20151D01*
X37121Y-21739D01*
X37037Y-21823D01*
X36972Y-21921D01*
X36950Y-22036D01*
X36950Y-26940D01*
X36915Y-26975D01*
X36889Y-26975D01*
X36889Y-20443D01*
X36592Y-20146D01*
X36521Y-20217D01*
X36521Y-20076D01*
X36224Y-19778D01*
X36131Y-19803D01*
X36062Y-20000D01*
X36073Y-20208D01*
X36131Y-20348D01*
X36224Y-20373D01*
X36521Y-20076D01*
X36521Y-20217D01*
X36294Y-20443D01*
X36319Y-20536D01*
X36516Y-20605D01*
X36724Y-20594D01*
X36864Y-20536D01*
X36889Y-20443D01*
X36889Y-26975D01*
X36429Y-26975D01*
X36429Y-24470D01*
X36418Y-24262D01*
X36360Y-24122D01*
X36267Y-24097D01*
X35970Y-24395D01*
X36267Y-24692D01*
X36360Y-24667D01*
X36429Y-24470D01*
X36429Y-26975D01*
X35631Y-26975D01*
X35571Y-26914D01*
X35414Y-26850D01*
X35245Y-26849D01*
X35089Y-26914D01*
X34969Y-27033D01*
X34905Y-27190D01*
X34904Y-27359D01*
X34969Y-27515D01*
X35088Y-27635D01*
X35245Y-27699D01*
X35414Y-27700D01*
X35570Y-27635D01*
X35631Y-27575D01*
X37040Y-27575D01*
X37040Y-27574D01*
X37154Y-27552D01*
X37154Y-27552D01*
X37252Y-27487D01*
X37462Y-27277D01*
X37462Y-27277D01*
X37527Y-27179D01*
X37549Y-27065D01*
X37550Y-27065D01*
X37550Y-24707D01*
X37593Y-24750D01*
X37795Y-24834D01*
X38013Y-24835D01*
X38216Y-24751D01*
X38370Y-24596D01*
X38404Y-24515D01*
X38438Y-24596D01*
X38593Y-24750D01*
X38795Y-24834D01*
X39013Y-24835D01*
X39216Y-24751D01*
X39370Y-24596D01*
X39454Y-24394D01*
X39455Y-24176D01*
X39371Y-23973D01*
X39216Y-23819D01*
X39135Y-23785D01*
X39216Y-23751D01*
X39246Y-23720D01*
X39427Y-23902D01*
X39427Y-23902D01*
X39525Y-23967D01*
X39640Y-23990D01*
X41420Y-23990D01*
X41420Y-23989D01*
X41534Y-23967D01*
X41534Y-23967D01*
X41632Y-23902D01*
X42556Y-22977D01*
X42561Y-23062D01*
X42619Y-23202D01*
X42712Y-23227D01*
X43009Y-22930D01*
X43003Y-22924D01*
X43074Y-22853D01*
X43080Y-22859D01*
X43085Y-22853D01*
X43156Y-22924D01*
X43150Y-22930D01*
X43447Y-23227D01*
X43540Y-23202D01*
X43609Y-23005D01*
X43598Y-22797D01*
X43593Y-22785D01*
X43667Y-22785D01*
X43667Y-22785D01*
X43782Y-22762D01*
X43782Y-22762D01*
X43880Y-22697D01*
X46061Y-20515D01*
X46061Y-20515D01*
X46126Y-20418D01*
X46149Y-20303D01*
X46149Y-20303D01*
X46149Y-20158D01*
X46159Y-20148D01*
X46197Y-20056D01*
X46197Y-19957D01*
X46197Y-30489D01*
X43377Y-30505D01*
X43377Y-23297D01*
X43080Y-23000D01*
X42782Y-23297D01*
X42807Y-23390D01*
X43004Y-23459D01*
X43212Y-23448D01*
X43352Y-23390D01*
X43377Y-23297D01*
X43377Y-30505D01*
X29830Y-30583D01*
X29830Y-28730D01*
X29830Y-27730D01*
X29792Y-27638D01*
X29721Y-27568D01*
X29629Y-27530D01*
X29530Y-27529D01*
X28530Y-27529D01*
X28438Y-27567D01*
X28368Y-27638D01*
X28330Y-27730D01*
X28329Y-27829D01*
X28329Y-28829D01*
X28367Y-28921D01*
X28438Y-28991D01*
X28530Y-29029D01*
X28629Y-29030D01*
X29629Y-29030D01*
X29721Y-28992D01*
X29791Y-28921D01*
X29829Y-28829D01*
X29830Y-28730D01*
X29830Y-30583D01*
X27833Y-30594D01*
X27833Y-28409D01*
X27825Y-28111D01*
X27726Y-27871D01*
X27610Y-27820D01*
X27539Y-27890D01*
X27539Y-27749D01*
X27488Y-27633D01*
X27209Y-27526D01*
X26911Y-27534D01*
X26671Y-27633D01*
X26620Y-27749D01*
X27080Y-28209D01*
X27539Y-27749D01*
X27539Y-27890D01*
X27150Y-28280D01*
X27610Y-28739D01*
X27726Y-28688D01*
X27833Y-28409D01*
X27833Y-30594D01*
X27539Y-30596D01*
X27539Y-28810D01*
X27080Y-28350D01*
X27009Y-28421D01*
X27009Y-28280D01*
X26549Y-27820D01*
X26433Y-27871D01*
X26326Y-28150D01*
X26334Y-28448D01*
X26433Y-28688D01*
X26549Y-28739D01*
X27009Y-28280D01*
X27009Y-28421D01*
X26620Y-28810D01*
X26671Y-28926D01*
X26950Y-29033D01*
X27248Y-29025D01*
X27488Y-28926D01*
X27539Y-28810D01*
X27539Y-30596D01*
X25780Y-30606D01*
X25653Y-30607D01*
X25664Y-30596D01*
X25618Y-30551D01*
X25711Y-30526D01*
X25780Y-30329D01*
X25780Y-27329D01*
X25769Y-27121D01*
X25711Y-26981D01*
X25618Y-26956D01*
X25321Y-27254D01*
X25618Y-27551D01*
X25711Y-27526D01*
X25780Y-27329D01*
X25780Y-30329D01*
X25769Y-30121D01*
X25711Y-29981D01*
X25618Y-29956D01*
X25548Y-30027D01*
X25548Y-29886D01*
X25548Y-27621D01*
X25251Y-27324D01*
X25180Y-27395D01*
X24953Y-27621D01*
X24978Y-27714D01*
X25175Y-27783D01*
X25383Y-27772D01*
X25523Y-27714D01*
X25548Y-27621D01*
X25548Y-29886D01*
X25523Y-29793D01*
X25326Y-29724D01*
X25118Y-29735D01*
X24978Y-29793D01*
X24953Y-29886D01*
X25251Y-30183D01*
X25548Y-29886D01*
X25548Y-30027D01*
X25321Y-30254D01*
X25327Y-30259D01*
X25256Y-30330D01*
X25251Y-30324D01*
X25245Y-30330D01*
X25180Y-30265D01*
X25174Y-30259D01*
X25180Y-30254D01*
X24883Y-29956D01*
X24790Y-29981D01*
X24721Y-30178D01*
X24732Y-30386D01*
X24790Y-30526D01*
X24883Y-30551D01*
X24837Y-30596D01*
X24853Y-30611D01*
X23628Y-30618D01*
X23695Y-30551D01*
X23775Y-30358D01*
X23776Y-30150D01*
X23696Y-29957D01*
X23551Y-29811D01*
X23551Y-27696D01*
X23693Y-27554D01*
X23843Y-27554D01*
X23843Y-27553D01*
X23957Y-27531D01*
X23957Y-27531D01*
X24055Y-27466D01*
X24432Y-27089D01*
X24432Y-27089D01*
X24497Y-26991D01*
X24516Y-26894D01*
X24516Y-26894D01*
X24841Y-26894D01*
X24865Y-26884D01*
X24837Y-26911D01*
X24883Y-26956D01*
X24790Y-26981D01*
X24721Y-27178D01*
X24732Y-27386D01*
X24790Y-27526D01*
X24883Y-27551D01*
X25180Y-27254D01*
X25174Y-27248D01*
X25245Y-27177D01*
X25251Y-27183D01*
X25548Y-26886D01*
X25523Y-26793D01*
X25326Y-26724D01*
X25118Y-26735D01*
X25005Y-26782D01*
X25041Y-26693D01*
X25041Y-26669D01*
X25472Y-26669D01*
X25645Y-26842D01*
X25645Y-26842D01*
X25743Y-26907D01*
X25857Y-26929D01*
X25858Y-26930D01*
X30900Y-26930D01*
X30900Y-26929D01*
X31014Y-26907D01*
X31014Y-26907D01*
X31112Y-26842D01*
X31342Y-26612D01*
X31342Y-26612D01*
X31407Y-26514D01*
X31429Y-26400D01*
X31430Y-26400D01*
X31430Y-24632D01*
X31454Y-24692D01*
X31602Y-24839D01*
X31795Y-24919D01*
X32003Y-24920D01*
X32197Y-24840D01*
X32344Y-24692D01*
X32400Y-24559D01*
X32454Y-24692D01*
X32602Y-24839D01*
X32795Y-24919D01*
X33003Y-24920D01*
X33197Y-24840D01*
X33344Y-24692D01*
X33400Y-24559D01*
X33454Y-24692D01*
X33602Y-24839D01*
X33795Y-24919D01*
X34003Y-24920D01*
X34197Y-24840D01*
X34344Y-24692D01*
X34400Y-24559D01*
X34454Y-24692D01*
X34602Y-24839D01*
X34795Y-24919D01*
X35003Y-24920D01*
X35090Y-24884D01*
X35090Y-25935D01*
X35031Y-25994D01*
X34909Y-26044D01*
X34789Y-26163D01*
X34725Y-26320D01*
X34724Y-26489D01*
X34789Y-26645D01*
X34908Y-26765D01*
X35065Y-26829D01*
X35234Y-26830D01*
X35390Y-26765D01*
X35510Y-26646D01*
X35574Y-26489D01*
X35575Y-26320D01*
X35568Y-26305D01*
X35602Y-26272D01*
X35602Y-26272D01*
X35667Y-26174D01*
X35689Y-26060D01*
X35690Y-26060D01*
X35690Y-24877D01*
X35824Y-24924D01*
X36032Y-24913D01*
X36172Y-24855D01*
X36197Y-24762D01*
X35900Y-24465D01*
X35894Y-24471D01*
X35823Y-24400D01*
X35829Y-24395D01*
X35823Y-24389D01*
X35894Y-24318D01*
X35900Y-24324D01*
X36197Y-24027D01*
X36172Y-23934D01*
X35975Y-23865D01*
X35968Y-23865D01*
X36112Y-23722D01*
X36112Y-23722D01*
X36177Y-23624D01*
X36199Y-23510D01*
X36200Y-23510D01*
X36200Y-21920D01*
X36224Y-21920D01*
X36316Y-21882D01*
X36386Y-21811D01*
X36424Y-21719D01*
X36425Y-21620D01*
X36425Y-21070D01*
X36387Y-20978D01*
X36316Y-20908D01*
X36224Y-20870D01*
X36125Y-20869D01*
X35575Y-20869D01*
X35483Y-20907D01*
X35413Y-20978D01*
X35375Y-21070D01*
X35374Y-21169D01*
X35374Y-21169D01*
X35345Y-21098D01*
X35197Y-20950D01*
X35004Y-20870D01*
X34965Y-20870D01*
X35056Y-20779D01*
X35077Y-20747D01*
X35231Y-20810D01*
X35439Y-20811D01*
X35633Y-20731D01*
X35780Y-20583D01*
X35860Y-20390D01*
X35861Y-20182D01*
X35781Y-19989D01*
X35633Y-19841D01*
X35440Y-19761D01*
X35232Y-19760D01*
X35144Y-19797D01*
X35144Y-19617D01*
X35365Y-19396D01*
X36970Y-19396D01*
X36970Y-19395D01*
X37084Y-19373D01*
X37084Y-19373D01*
X37182Y-19308D01*
X41975Y-14515D01*
X42459Y-14515D01*
X42389Y-14585D01*
X42351Y-14677D01*
X42351Y-14776D01*
X42351Y-15170D01*
X42389Y-15262D01*
X42399Y-15272D01*
X42399Y-16179D01*
X42422Y-16294D01*
X42487Y-16391D01*
X43127Y-17032D01*
X43127Y-17032D01*
X43225Y-17097D01*
X43340Y-17120D01*
X45728Y-17120D01*
X45720Y-17140D01*
X45719Y-17309D01*
X45784Y-17465D01*
X45804Y-17485D01*
X39883Y-17485D01*
X39768Y-17507D01*
X39700Y-17552D01*
X39696Y-17551D01*
X39488Y-17550D01*
X39295Y-17630D01*
X39147Y-17778D01*
X39067Y-17971D01*
X39066Y-18179D01*
X39146Y-18373D01*
X39294Y-18520D01*
X39487Y-18600D01*
X39695Y-18601D01*
X39889Y-18521D01*
X40036Y-18373D01*
X40116Y-18180D01*
X40116Y-18085D01*
X44262Y-18085D01*
X44198Y-18097D01*
X44100Y-18162D01*
X43536Y-18726D01*
X43536Y-18726D01*
X43274Y-18988D01*
X43209Y-19086D01*
X43187Y-19200D01*
X43187Y-19460D01*
X43176Y-19471D01*
X43138Y-19562D01*
X43138Y-19662D01*
X43138Y-20056D01*
X43176Y-20147D01*
X43246Y-20218D01*
X43332Y-20253D01*
X43180Y-20405D01*
X43048Y-20404D01*
X43048Y-19957D01*
X43048Y-19563D01*
X43010Y-19471D01*
X42939Y-19401D01*
X42848Y-19362D01*
X42748Y-19362D01*
X42551Y-19362D01*
X42459Y-19400D01*
X42389Y-19471D01*
X42351Y-19562D01*
X42351Y-19662D01*
X42351Y-20056D01*
X42389Y-20147D01*
X42459Y-20218D01*
X42551Y-20256D01*
X42650Y-20256D01*
X42847Y-20256D01*
X42939Y-20218D01*
X43009Y-20148D01*
X43048Y-20056D01*
X43048Y-19957D01*
X43048Y-20404D01*
X42976Y-20404D01*
X42783Y-20484D01*
X42637Y-20630D01*
X40522Y-20630D01*
X40377Y-20485D01*
X40184Y-20405D01*
X40121Y-20405D01*
X39991Y-20404D01*
X39959Y-20373D01*
X40052Y-20348D01*
X40121Y-20151D01*
X40110Y-19943D01*
X40052Y-19803D01*
X39959Y-19778D01*
X39889Y-19849D01*
X39889Y-19708D01*
X39864Y-19615D01*
X39667Y-19546D01*
X39459Y-19557D01*
X39319Y-19615D01*
X39294Y-19708D01*
X39592Y-20005D01*
X39889Y-19708D01*
X39889Y-19849D01*
X39662Y-20076D01*
X39668Y-20081D01*
X39597Y-20152D01*
X39592Y-20146D01*
X39521Y-20217D01*
X39521Y-20076D01*
X39224Y-19778D01*
X39131Y-19803D01*
X39062Y-20000D01*
X39073Y-20208D01*
X39131Y-20348D01*
X39224Y-20373D01*
X39521Y-20076D01*
X39521Y-20217D01*
X39294Y-20443D01*
X39319Y-20536D01*
X39516Y-20605D01*
X39669Y-20597D01*
X39635Y-20632D01*
X39555Y-20825D01*
X39554Y-21033D01*
X39634Y-21227D01*
X39782Y-21374D01*
X39975Y-21454D01*
X40183Y-21455D01*
X40377Y-21375D01*
X40522Y-21230D01*
X42637Y-21230D01*
X42782Y-21374D01*
X42975Y-21454D01*
X43183Y-21455D01*
X43377Y-21375D01*
X43524Y-21227D01*
X43604Y-21034D01*
X43605Y-20829D01*
X44092Y-20342D01*
X44092Y-20342D01*
X44149Y-20256D01*
X44225Y-20256D01*
X44422Y-20256D01*
X44514Y-20218D01*
X44584Y-20148D01*
X44622Y-20056D01*
X44622Y-19957D01*
X44622Y-19563D01*
X44584Y-19471D01*
X44514Y-19401D01*
X44422Y-19362D01*
X44323Y-19362D01*
X44180Y-19362D01*
X44180Y-19070D01*
X44157Y-18955D01*
X44157Y-18955D01*
X44437Y-18675D01*
X45350Y-18675D01*
X45338Y-18686D01*
X45274Y-18843D01*
X45273Y-19012D01*
X45338Y-19168D01*
X45457Y-19288D01*
X45614Y-19352D01*
X45783Y-19353D01*
X45939Y-19288D01*
X46059Y-19169D01*
X46123Y-19012D01*
X46124Y-18843D01*
X46059Y-18687D01*
X46046Y-18675D01*
X48460Y-18675D01*
X48460Y-18674D01*
X48574Y-18652D01*
X48574Y-18652D01*
X48672Y-18587D01*
X49054Y-18205D01*
X49379Y-18205D01*
X49471Y-18167D01*
X49541Y-18096D01*
X49579Y-18004D01*
X49580Y-17905D01*
X49580Y-17714D01*
X49776Y-17714D01*
X49776Y-17713D01*
X49890Y-17691D01*
X49890Y-17691D01*
X49988Y-17626D01*
X50019Y-17595D01*
X50084Y-17497D01*
X50106Y-17383D01*
X50107Y-17383D01*
X50107Y-16753D01*
X50084Y-16638D01*
X50019Y-16540D01*
X50019Y-16540D01*
X49798Y-16319D01*
X49700Y-16254D01*
X49586Y-16232D01*
X48270Y-16232D01*
X47724Y-15685D01*
X47724Y-15272D01*
X47734Y-15262D01*
X47772Y-15170D01*
X47772Y-15071D01*
X47772Y-14677D01*
X47734Y-14585D01*
X47664Y-14515D01*
X47572Y-14477D01*
X47472Y-14476D01*
X47276Y-14476D01*
X47184Y-14514D01*
X47173Y-14525D01*
X46887Y-14525D01*
X46876Y-14515D01*
X46785Y-14477D01*
X46685Y-14476D01*
X46488Y-14476D01*
X46418Y-14506D01*
X46418Y-14110D01*
X46353Y-13953D01*
X46233Y-13833D01*
X46076Y-13768D01*
X45906Y-13767D01*
X45749Y-13832D01*
X45629Y-13952D01*
X45564Y-14109D01*
X45563Y-14279D01*
X45628Y-14436D01*
X45678Y-14486D01*
X45609Y-14515D01*
X45538Y-14585D01*
X45500Y-14677D01*
X45500Y-14811D01*
X45563Y-14873D01*
X45800Y-14873D01*
X45800Y-14866D01*
X45898Y-14866D01*
X45898Y-14873D01*
X46135Y-14873D01*
X46197Y-14811D01*
X46197Y-14677D01*
X46160Y-14587D01*
X46232Y-14557D01*
X46352Y-14437D01*
X46417Y-14280D01*
X46418Y-14110D01*
X46418Y-14506D01*
X46396Y-14514D01*
X46326Y-14585D01*
X46288Y-14677D01*
X46288Y-14776D01*
X46288Y-15170D01*
X46326Y-15262D01*
X46396Y-15332D01*
X46488Y-15370D01*
X46587Y-15370D01*
X46784Y-15370D01*
X46876Y-15332D01*
X46946Y-15262D01*
X46985Y-15170D01*
X46985Y-15125D01*
X47075Y-15125D01*
X47075Y-15170D01*
X47113Y-15262D01*
X47124Y-15272D01*
X47124Y-15810D01*
X47146Y-15924D01*
X47211Y-16022D01*
X47799Y-16609D01*
X47797Y-16609D01*
X47705Y-16647D01*
X47635Y-16718D01*
X47628Y-16735D01*
X47129Y-16735D01*
X47002Y-16607D01*
X46904Y-16542D01*
X46790Y-16520D01*
X46756Y-16520D01*
X46550Y-16520D01*
X46197Y-16520D01*
X46197Y-15170D01*
X46197Y-15036D01*
X46135Y-14973D01*
X45898Y-14973D01*
X45898Y-15308D01*
X45960Y-15370D01*
X45997Y-15370D01*
X46089Y-15332D01*
X46159Y-15262D01*
X46197Y-15170D01*
X46197Y-16520D01*
X45800Y-16520D01*
X45800Y-15308D01*
X45800Y-14973D01*
X45563Y-14973D01*
X45500Y-15036D01*
X45500Y-15170D01*
X45538Y-15262D01*
X45609Y-15332D01*
X45700Y-15370D01*
X45737Y-15370D01*
X45800Y-15308D01*
X45800Y-16520D01*
X43464Y-16520D01*
X42999Y-16055D01*
X42999Y-15508D01*
X43109Y-15619D01*
X43207Y-15684D01*
X43322Y-15707D01*
X44515Y-15707D01*
X44515Y-15706D01*
X44629Y-15684D01*
X44629Y-15684D01*
X44727Y-15619D01*
X44884Y-15462D01*
X44945Y-15370D01*
X45012Y-15370D01*
X45209Y-15370D01*
X45301Y-15332D01*
X45372Y-15262D01*
X45410Y-15170D01*
X45410Y-15071D01*
X45410Y-14677D01*
X45372Y-14585D01*
X45302Y-14515D01*
X45210Y-14477D01*
X45110Y-14476D01*
X44972Y-14476D01*
X44972Y-12848D01*
X45109Y-12711D01*
X49962Y-12711D01*
X49962Y-12710D01*
X50076Y-12688D01*
X50076Y-12688D01*
X50174Y-12623D01*
X50452Y-12345D01*
X50528Y-12345D01*
X50731Y-12261D01*
X50885Y-12106D01*
X50919Y-12025D01*
X50953Y-12106D01*
X51108Y-12260D01*
X51310Y-12344D01*
X51528Y-12345D01*
X51731Y-12261D01*
X51885Y-12106D01*
X51917Y-12031D01*
X51938Y-12082D01*
X52034Y-12110D01*
X52349Y-11795D01*
X52034Y-11479D01*
X51938Y-11507D01*
X51919Y-11562D01*
X51886Y-11483D01*
X51731Y-11329D01*
X51529Y-11245D01*
X51311Y-11244D01*
X51108Y-11328D01*
X50954Y-11483D01*
X50920Y-11564D01*
X50886Y-11483D01*
X50731Y-11329D01*
X50529Y-11245D01*
X50311Y-11244D01*
X50108Y-11328D01*
X49954Y-11483D01*
X49920Y-11564D01*
X49886Y-11483D01*
X49731Y-11329D01*
X49529Y-11245D01*
X49311Y-11244D01*
X49299Y-11249D01*
X49249Y-11200D01*
X52950Y-11200D01*
X52950Y-11624D01*
X52901Y-11507D01*
X52805Y-11479D01*
X52735Y-11550D01*
X52735Y-11409D01*
X52707Y-11313D01*
X52501Y-11240D01*
X52283Y-11251D01*
X52132Y-11313D01*
X52104Y-11409D01*
X52420Y-11724D01*
X52735Y-11409D01*
X52735Y-11550D01*
X52490Y-11795D01*
X52805Y-12110D01*
X52901Y-12082D01*
X52950Y-11946D01*
X52950Y-30450D01*
M02*
